/* XPM */
static char *_76d5bf0a1564068fa63b5f668ec863arDrI3zPzU095VrLT[] = {
/* columns rows colors chars-per-pixel */
"16 16 86 1 ",
"  c None",
". c #050000",
"X c #070303",
"o c #0D0909",
"O c #0C0F0E",
"+ c #120001",
"@ c #1F0002",
"# c #190005",
"$ c #1B0107",
"% c #121011",
"& c #1E1010",
"* c #1D1415",
"= c #250006",
"- c #29010B",
"; c #2A000A",
": c #2A010A",
"> c #28070A",
", c #25090A",
"< c #36000A",
"1 c #38050B",
"2 c #3A000E",
"3 c #3B000F",
"4 c #3A010F",
"5 c #3B010F",
"6 c #3C080F",
"7 c #3D0A0F",
"8 c #2A0F11",
"9 c #261012",
"0 c #241515",
"q c #2C1314",
"w c #3F1E21",
"e c #3F1F22",
"r c #3F1E24",
"t c #3D2427",
"y c #302C2D",
"u c #49000F",
"i c #53020F",
"p c #4B0010",
"a c #4C0013",
"s c #4C0113",
"d c #4D0114",
"f c #4C0214",
"g c #590011",
"h c #5C0015",
"j c #5D0017",
"k c #5D0117",
"l c #5A0614",
"z c #500B17",
"x c #510E18",
"c c #690016",
"v c #6A0717",
"b c #6D021C",
"n c #600D1B",
"m c #6F0B1F",
"M c #77031B",
"N c #730A1D",
"B c #4C1821",
"V c #4C1B20",
"C c #581C25",
"Z c #7A0620",
"A c #641320",
"S c #641423",
"D c #6C1C2C",
"F c #7E1D2F",
"G c #57222B",
"H c #542930",
"J c #542A31",
"K c #453134",
"L c #40393A",
"P c #5F3239",
"I c #5C333A",
"U c #533A3C",
"Y c #6D2532",
"T c #6B2A35",
"R c #7E2134",
"E c #742E3B",
"W c #643339",
"Q c #713742",
"! c #872236",
"~ c #8A283C",
"^ c #873647",
"/ c #813C49",
"( c #82424F",
") c #844A56",
"_ c #974455",
"` c #984758",
/* pixels */
"                ",
"                ",
"      !MZ~      ",
"    ^vR bcm     ",
"   nA (SkhhgD   ",
"  zQ Cx faaapp  ",
"   H1P  <55555  ",
"  >w U,ww==---  ",
"    *&  _ 0+$$  ",
"  %OK FN_ ) X.  ",
"    YlE Ti/     ",
"   GV I7V H7W   ",
"     t8  9q     ",
"       yoL      ",
"                ",
"                "
};
