<?xml version="1.0" encoding="utf-8"?>
<!-- Generator: Adobe Illustrator 23.0.1, SVG Export Plug-In . SVG Version: 6.00 Build 0)  -->
<svg version="1.1" id="Layer_1" xmlns="http://www.w3.org/2000/svg" xmlns:xlink="http://www.w3.org/1999/xlink" x="0px" y="0px"
	 viewBox="0 0 24 24" style="enable-background:new 0 0 24 24;" xml:space="preserve">
<style type="text/css">
	.st0{opacity:0.7;}
	.st1{fill:none;}
	.st2{fill:#FFFFFF;}
</style>
<g id="ic-transaction-sent" class="st0">
	<path id="Rectangle_4412" class="st1" d="M0,0h24v24H0V0z"/>
	<g>
		<path class="st2" d="M4.4,18.9c5.7-2.4,11.4-4.9,17.1-7.3C15.8,9.1,10.1,6.7,4.4,4.3c0,1.9,0,3.8,0,5.7c4,0.5,8.1,1.1,12.1,1.6
			l0,0c-4,0.5-8.1,1.1-12.1,1.6C4.4,15.1,4.4,17,4.4,18.9z"/>
		<path class="st2" d="M4.4,18.9c0-1.9,0-3.8,0-5.7c4-0.5,8.1-1.1,12.1-1.6l0,0c-4-0.5-8-1.1-12.1-1.6c0-1.9,0-3.8,0-5.7
			c5.7,2.4,11.4,4.8,17.1,7.3C15.8,14.1,10.1,16.5,4.4,18.9z"/>
	</g>
</g>
</svg>
