<?xml version="1.0" encoding="utf-8"?>
<!-- Generator: Adobe Illustrator 23.0.1, SVG Export Plug-In . SVG Version: 6.00 Build 0)  -->
<svg version="1.1" id="Layer_1" xmlns="http://www.w3.org/2000/svg" xmlns:xlink="http://www.w3.org/1999/xlink" x="0px" y="0px"
	 viewBox="0 0 24 24" style="enable-background:new 0 0 24 24;" xml:space="preserve">
<style type="text/css">
	.st0{fill:#FFFFFF;}
</style>
<g>
	<path class="st0" d="M9.7,16.7c0-0.7,0-1.3,0-1.9c0-0.1-0.1-0.1-0.1-0.2c-0.9-0.4-1.7-1-2.3-1.7c-0.1-0.1-0.2-0.1-0.3-0.1
		C4,12.4,1.8,10.4,1.2,7.6C1.1,7.2,1.1,6.8,1,6.4c0-0.7,0-1.4,0-2.1c0-0.5,0.3-0.8,0.9-0.9c1.2,0,2.4,0,3.5,0c0.1,0,0.2,0,0.3,0
		c0-0.3,0-0.5,0-0.7c0-0.5,0.3-0.8,0.9-0.8c3.6,0,7.2,0,10.8,0c0.5,0,0.9,0.3,0.9,0.8c0,0.2,0,0.5,0,0.7c0.1,0,0.2,0,0.3,0
		c1.2,0,2.4,0,3.5,0c0.6,0,0.9,0.3,0.9,0.9c0,0.9,0,1.8-0.1,2.8c-0.2,2.8-2.5,5.2-5.3,5.6c-0.5,0.1-0.8,0.2-1.2,0.6
		c-0.5,0.6-1.2,1-1.9,1.3c-0.2,0.1-0.2,0.1-0.2,0.3c0,0.6,0,1.2,0,1.8c0.2,0,0.5,0,0.7,0c1.4,0,2.4,1,2.4,2.4c0,0.7,0,1.5,0,2.2
		c0,0.6-0.3,0.9-0.9,0.9c-3.1,0-6.1,0-9.2,0c-0.6,0-0.9-0.3-0.9-0.9c0-0.7,0-1.5,0-2.2c0-1.4,1-2.4,2.4-2.4
		C9.2,16.7,9.4,16.7,9.7,16.7z M16.7,3.4c-3.1,0-6.3,0-9.4,0c0,0.1,0,0.1,0,0.1c0,1.8,0,3.6,0,5.5c0,0.3,0,0.6,0.1,0.9
		c0.4,1.7,1.5,2.8,3.1,3.4c0.5,0.2,0.7,0.4,0.7,0.9c0,0.5,0,1,0,1.6c0,0.3,0,0.6,0,0.8c0.5,0,1,0,1.6,0c0-0.8,0-1.6,0-2.4
		c0-0.6,0.1-0.8,0.7-1c2-0.7,3.2-2.4,3.2-4.5c0-1.6,0-3.2,0-4.8C16.7,3.8,16.7,3.6,16.7,3.4z M15.9,20.6c0-0.6,0-1.1,0-1.7
		c0-0.4-0.4-0.7-0.8-0.7c-2.1,0-4.2,0-6.3,0c-0.4,0-0.8,0.3-0.8,0.8c0,0.3,0,0.5,0,0.8c0,0.3,0,0.5,0,0.8
		C10.7,20.6,13.3,20.6,15.9,20.6z M6.1,11c-0.4-0.9-0.4-1.9-0.4-2.8c0-1,0-2,0-3c0-0.1,0-0.2,0-0.3C4.7,5,3.6,5,2.6,5
		c-0.1,1.6,0,3.1,1,4.4C4.3,10.1,5.1,10.7,6.1,11z M17.9,11c0.1,0,0.1,0,0.2,0c1.9-0.7,3-2.1,3.2-4.1c0.1-0.6,0-1.3,0-1.9
		c-1,0-2.1,0-3.1,0c0,1.2,0,2.4,0,3.6c0,0.5,0,0.9-0.1,1.4C18.1,10.3,18,10.6,17.9,11z"/>
</g>
</svg>
