<?xml version="1.0" encoding="utf-8"?>
<!-- Generator: Adobe Illustrator 23.0.1, SVG Export Plug-In . SVG Version: 6.00 Build 0)  -->
<svg version="1.1" id="Layer_1" xmlns="http://www.w3.org/2000/svg" xmlns:xlink="http://www.w3.org/1999/xlink" x="0px" y="0px"
	 viewBox="0 0 24 24" style="enable-background:new 0 0 24 24;" xml:space="preserve">
<style type="text/css">
	.st0{fill:#B6B6B6;}
</style>
<g>
	<path class="st0" d="M3.8,19.3c5.7-2.4,11.4-4.9,17.1-7.3C15.2,9.5,9.5,7.1,3.8,4.7c0,1.9,0,3.8,0,5.7c4,0.5,8.1,1.1,12.1,1.6
		c0,0,0,0,0,0c-4,0.5-8.1,1.1-12.1,1.6C3.8,15.5,3.8,17.4,3.8,19.3z"/>
	<path class="st0" d="M3.8,19.3c0-1.9,0-3.8,0-5.7c4-0.5,8.1-1.1,12.1-1.6c0,0,0,0,0,0c-4-0.5-8-1.1-12.1-1.6c0-1.9,0-3.8,0-5.7
		C9.5,7.1,15.2,9.5,20.9,12C15.2,14.5,9.5,16.9,3.8,19.3z"/>
</g>
</svg>
