<?xml version="1.0" encoding="utf-8"?>
<!-- Generator: Adobe Illustrator 23.0.1, SVG Export Plug-In . SVG Version: 6.00 Build 0)  -->
<svg version="1.1" id="ic_warnig_3" xmlns="http://www.w3.org/2000/svg" xmlns:xlink="http://www.w3.org/1999/xlink" x="0px"
	 y="0px" viewBox="0 0 24 24" style="enable-background:new 0 0 24 24;" xml:space="preserve">
<style type="text/css">
	.st0{fill:none;}
	.st1{fill:#F84444;}
</style>
<path id="Rectangle_4412" class="st0" d="M0,0h24v24H0V0z"/>
<g>
	<path class="st1" d="M12,2c0.1,0,0.2,0,0.3,0.1c0.5,0.1,0.9,0.4,1.2,0.8c0.3,0.5,0.6,1,0.9,1.4c2.3,4,4.6,8.1,6.9,12.1
		c0.2,0.4,0.4,0.7,0.4,1.1c0,0,0,0,0,0c0,0.1,0,0.3,0,0.4c0,0.2-0.1,0.3-0.1,0.5c-0.2,0.8-1,1.5-1.8,1.5c-0.5,0-0.9,0-1.4,0
		c-3.3,0-6.5,0-9.8,0c-1.6,0-3.2,0-4.7,0c-0.9,0-1.7-0.6-2-1.5c-0.2-0.5-0.2-1,0-1.5c0.1-0.2,0.2-0.4,0.3-0.5c2-3.5,4-7,6-10.5
		c0.5-0.9,1-1.8,1.5-2.7c0.3-0.6,0.8-0.9,1.4-1.2C11.3,2.1,11.5,2,11.6,2C11.7,2,11.9,2,12,2z M11.8,18.9
		C11.8,18.9,11.8,18.9,11.8,18.9c1.8,0,3.7,0,5.5,0c0.8,0,1.5,0,2.3,0c0.1,0,0.3,0,0.4-0.1c0.7-0.3,0.8-1.1,0.5-1.5
		c-0.2-0.3-0.3-0.6-0.5-0.8c-1.9-3.4-3.8-6.7-5.8-10.1c-0.5-0.9-1.1-1.9-1.7-2.8c-0.1-0.2-0.3-0.3-0.5-0.4c-0.4-0.2-1,0-1.3,0.4
		c-0.2,0.3-0.4,0.7-0.6,1C7.9,8.8,5.5,13,3.1,17.2c-0.2,0.4-0.3,1.1,0.3,1.5c0.2,0.2,0.4,0.2,0.7,0.2C6.6,18.9,9.2,18.9,11.8,18.9z"
		/>
	<path class="st1" d="M12.3,14.5c-0.3,0-0.7,0-1,0c0-0.2,0-0.4-0.1-0.5c-0.1-0.7-0.2-1.3-0.3-2c-0.2-0.9-0.4-1.9-0.6-2.8
		c-0.1-0.6-0.2-1.2-0.1-1.8c0-0.6,0.3-1,0.8-1.2C11.3,6,11.7,6,12,6c0.8,0,1.4,0.8,1.4,1.6c0,0.5-0.1,1-0.2,1.5c-0.2,1-0.5,2-0.7,3
		c-0.1,0.7-0.2,1.3-0.3,2C12.3,14.3,12.3,14.4,12.3,14.5z"/>
	<path class="st1" d="M11.8,18.2c-1,0-1.7-0.8-1.7-1.7c0-0.8,0.7-1.6,1.7-1.6c0.8,0,1.6,0.8,1.6,1.7C13.4,17.5,12.7,18.2,11.8,18.2z
		"/>
</g>
</svg>
