<?xml version="1.0" encoding="utf-8"?>
<!-- Generator: Adobe Illustrator 23.0.1, SVG Export Plug-In . SVG Version: 6.00 Build 0)  -->
<svg version="1.1" id="Layer_1" xmlns="http://www.w3.org/2000/svg" xmlns:xlink="http://www.w3.org/1999/xlink" x="0px" y="0px"
	 viewBox="0 0 24 24" style="enable-background:new 0 0 24 24;" xml:space="preserve">
<style type="text/css">
	.st0{fill:#FFFFFF;}
</style>
<path class="st0" d="M4.3,14.5c0.1,0,0.2,0,0.3,0c1.5,0,3,0,4.5,0c0.2,0,0.2,0,0.3,0.2c0.3,0.5,0.7,1,1,1.5c0.1,0.1,0.1,0.1,0.2,0.1
	c1.2,0,2.5,0,3.7,0c0.1,0,0.2,0,0.3-0.1c0.3-0.5,0.7-1,1-1.5c0.1-0.1,0.2-0.2,0.3-0.2c1.5,0,3,0,4.5,0c0.1,0,0.2,0,0.3,0
	c-0.1-0.2-0.2-0.4-0.2-0.6c-1.3-3-2.5-5.9-3.8-8.9c-0.1-0.2-0.2-0.2-0.3-0.2c-0.6,0-1.2,0-1.8,0c-0.1,0-0.1,0-0.2,0
	c0-0.4,0-0.7,0-1.1c0.1,0,0.1,0,0.2,0c1,0,1.9,0,2.9,0c0.2,0,0.2,0,0.3,0.2c1.4,3.4,2.8,6.9,4.3,10.3c0.1,0.3,0.2,0.6,0.2,0.9
	c0,2.2,0,4.5,0,6.7c0,0.2,0,0.2-0.2,0.2C15.6,22,9.3,22,3,22c-0.2,0-0.2-0.1-0.2-0.2c0-2.3,0-4.7,0-7c0-0.1,0-0.2,0.1-0.3
	c0.9-2.2,1.8-4.4,2.8-6.6c0.5-1.3,1.1-2.6,1.6-3.9c0-0.1,0.1-0.1,0.2-0.1c1.1,0,2.1,0,3.2,0c0,0,0,0,0.1,0c0,0.4,0,0.7,0,1.1
	c-0.1,0-0.2,0-0.3,0c-0.6,0-1.2,0-1.7,0C8.4,4.8,8.3,4.9,8.3,5C7.5,6.8,6.8,8.6,6,10.4c-0.6,1.3-1.1,2.6-1.7,4
	C4.3,14.4,4.3,14.4,4.3,14.5z"/>
<path class="st0" d="M13.7,2.5c0,2.7,0,5.3,0,8c0.8,0,1.5,0,2.2,0c0,0,0,0,0,0c-1.2,1.3-2.3,2.6-3.5,4c-1.2-1.3-2.3-2.6-3.5-4
	c0.8,0,1.5,0,2.3,0c0-0.1,0-0.2,0-0.2c0-2.5,0-5,0-7.6c0-0.2,0.1-0.2,0.2-0.2c0.7,0,1.3,0,2,0C13.5,2.5,13.6,2.5,13.7,2.5z"/>
</svg>
