<?xml version="1.0" encoding="utf-8"?>
<!-- Generator: Adobe Illustrator 23.0.1, SVG Export Plug-In . SVG Version: 6.00 Build 0)  -->
<svg version="1.1" id="ic_connect" shape-rendering="geometricPrecision"
	 xmlns="http://www.w3.org/2000/svg" xmlns:xlink="http://www.w3.org/1999/xlink" x="0px" y="0px" viewBox="0 0 24 24"
	 style="enable-background:new 0 0 24 24;" xml:space="preserve">
<style type="text/css">
	.st0{fill:#FFFFFF;}
</style>
<g>
	<path class="st0" d="M19.5,18.3c-0.4-0.4-0.8-0.9-1.2-1.3c1.4-1.7,2.2-3.7,2.3-6c0.1-2.2-0.5-4.3-1.8-6.1c0.4-0.4,0.8-0.9,1.2-1.3
		C23.1,7.6,23.3,13.9,19.5,18.3z"/>
	<path class="st0" d="M4.1,3.6C4.5,4,4.9,4.5,5.3,4.9C4,6.7,3.4,8.8,3.5,11c0.1,2.2,0.8,4.2,2.3,6c-0.4,0.4-0.8,0.9-1.2,1.3
		C1.1,14.5,0.5,8.2,4.1,3.6z"/>
	<path class="st0" d="M12.8,15.7c0,1,0,2,0,3c0,0.5-0.3,0.8-0.8,0.9c-0.5,0.1-1-0.3-1-0.8c0-0.1,0-0.1,0-0.2c0-1.9,0-3.9,0-5.8
		c0-0.1,0-0.1-0.1-0.2c-0.6-0.4-0.9-1.2-0.8-1.9c0.2-0.7,0.8-1.3,1.5-1.4c0.8-0.1,1.7,0.4,2,1.2c0.3,0.8,0,1.7-0.7,2.2
		c-0.1,0-0.1,0.1-0.1,0.2C12.8,13.7,12.8,14.7,12.8,15.7C12.8,15.7,12.8,15.7,12.8,15.7z"/>
	<path class="st0" d="M5.8,5.5C6.1,5.8,6.4,6,6.6,6.3C6.7,6.5,6.9,6.6,7,6.8c0,0,0.1,0.1,0,0.1C6.6,7.7,6.3,8.5,6.1,9.4
		c-0.1,0.8-0.2,1.5,0,2.3c0.2,1.2,0.6,2.4,1.4,3.4c0,0,0,0,0,0c-0.4,0.4-0.8,0.9-1.2,1.3c-1.1-1.4-1.8-3-2-4.7
		C4,9.5,4.5,7.4,5.8,5.5z"/>
	<path class="st0" d="M16.9,6.8c0.4-0.4,0.8-0.9,1.2-1.3c2.3,3.2,2.2,7.9-0.4,11c-0.4-0.4-0.8-0.9-1.2-1.3
		C18.3,12.4,18.5,9.7,16.9,6.8z"/>
	<path class="st0" d="M9.3,13.2c-0.4,0.4-0.8,0.9-1.2,1.3c-1.6-1.9-1.9-4.8-0.4-7.1c0,0,0,0.1,0.1,0.1c0.4,0.4,0.8,0.8,1.1,1.2
		c0,0,0,0.1,0,0.1C8.2,10.4,8.4,11.8,9.3,13.2C9.3,13.1,9.3,13.2,9.3,13.2z"/>
	<path class="st0" d="M15.9,14.5c-0.4-0.4-0.8-0.9-1.2-1.3c0.1-0.2,0.3-0.4,0.4-0.7c0.6-1.2,0.6-2.4,0-3.6c0-0.1,0-0.1,0-0.2
		c0.4-0.4,0.8-0.8,1.1-1.2c0,0,0,0,0.1-0.1C17.7,9.5,17.6,12.5,15.9,14.5z"/>
</g>
</svg>
