<?xml version="1.0" encoding="utf-8"?>
<!-- Generator: Adobe Illustrator 23.0.1, SVG Export Plug-In . SVG Version: 6.00 Build 0)  -->
<svg version="1.1" id="ic_staking_on" shape-rendering="geometricPrecision"
	 xmlns="http://www.w3.org/2000/svg" xmlns:xlink="http://www.w3.org/1999/xlink" x="0px" y="0px" viewBox="0 0 24 24"
	 style="enable-background:new 0 0 24 24;" xml:space="preserve">
<style type="text/css">
	.st0{fill:none;}
	.st1{fill:#FFFFFF;}
</style>
<path id="Rectangle_4527" class="st0" d="M0,0h24v24H0V0z"/>
<g>
	<path class="st1" d="M9.7,16.7c0-0.6,0-1.3,0-1.9c0-0.1-0.1-0.1-0.1-0.2c-0.9-0.4-1.6-1-2.3-1.7c-0.1-0.1-0.2-0.1-0.3-0.1
		c-2.8-0.3-5-2.3-5.6-5.1c0-0.3-0.1-0.7-0.1-1.1c0-0.7,0-1.4,0-2.1c0-0.5,0.3-0.8,0.8-0.8c1.2,0,2.3,0,3.5,0c0.1,0,0.2,0,0.3,0
		c0-0.2,0-0.5,0-0.7c0-0.5,0.3-0.8,0.8-0.8c3.5,0,7,0,10.5,0C17.7,2.2,18,2.5,18,3c0,0.2,0,0.4,0,0.7c0.1,0,0.2,0,0.3,0
		c1.2,0,2.3,0,3.5,0c0.6,0,0.9,0.3,0.9,0.9c0,0.9,0,1.8-0.1,2.7c-0.2,2.7-2.5,5.1-5.2,5.5c-0.5,0.1-0.8,0.2-1.1,0.6
		c-0.5,0.6-1.1,1-1.8,1.3c-0.2,0.1-0.2,0.1-0.2,0.3c0,0.6,0,1.2,0,1.8c0.2,0,0.5,0,0.7,0c1.4,0,2.4,1,2.4,2.4c0,0.7,0,1.4,0,2.1
		c0,0.6-0.3,0.9-0.9,0.9c-3,0-6,0-9,0c-0.6,0-0.9-0.3-0.9-0.9c0-0.7,0-1.4,0-2.1c0-1.3,1-2.3,2.3-2.3C9.2,16.7,9.5,16.7,9.7,16.7z
		 M16.6,3.7c-3.1,0-6.1,0-9.2,0c0,0.1,0,0.1,0,0.1c0,1.8,0,3.5,0,5.3c0,0.3,0,0.6,0.1,0.9c0.4,1.6,1.5,2.7,3,3.3
		c0.5,0.2,0.7,0.4,0.7,0.9s0,1,0,1.5c0,0.3,0,0.6,0,0.8c0.5,0,1,0,1.5,0c0-0.8,0-1.6,0-2.3c0-0.6,0.1-0.8,0.7-0.9
		c1.9-0.7,3.1-2.4,3.1-4.4c0-1.6,0-3.1,0-4.7C16.6,4.1,16.6,4,16.6,3.7z M15.8,20.5c0-0.6,0-1.1,0-1.6c0-0.4-0.4-0.7-0.8-0.7
		c-2,0-4.1,0-6.1,0c-0.4,0-0.8,0.3-0.8,0.8c0,0.3,0,0.5,0,0.8c0,0.2,0,0.5,0,0.7C10.7,20.5,13.3,20.5,15.8,20.5z M2.8,5.3
		c0,0.5,0,0.9,0,1.4c0,1.9,1.3,3.7,3.1,4.4c0.1,0,0.2,0,0.4,0.1C6,10.3,5.9,9.4,5.9,8.5c0-1,0-2,0-2.9c0-0.1,0-0.2,0-0.3
		C4.9,5.3,3.9,5.3,2.8,5.3z M18.1,5.3c0,0.1,0,0.2,0,0.3c0,1.2,0,2.3,0,3.5c0,0.5-0.1,1.1-0.2,1.6c0,0.2-0.1,0.3-0.1,0.5
		c0,0,0,0,0.1,0.1c0.4-0.2,0.8-0.3,1.1-0.6c1.7-1.1,2.6-3.2,2.2-5.3C20.1,5.3,19.1,5.3,18.1,5.3z"/>
</g>
</svg>
