<?xml version="1.0" encoding="utf-8"?>
<!-- Generator: Adobe Illustrator 23.0.1, SVG Export Plug-In . SVG Version: 6.00 Build 0)  -->
<svg version="1.1" id="ic_mint_on" shape-rendering="geometricPrecision"
	 xmlns="http://www.w3.org/2000/svg" xmlns:xlink="http://www.w3.org/1999/xlink" x="0px" y="0px" viewBox="0 0 24 24"
	 style="enable-background:new 0 0 24 24;" xml:space="preserve">
<style type="text/css">
	.st0{fill:#848374;}
	.st1{fill:none;}
</style>
<g id="Group_9004">
	<path id="Path_18964" class="st0" d="M6,5h12v2.6l-0.8-0.8l-1.4,1.4l3.2,3.2l3.2-3.2l-1.4-1.4L20,7.6V3H4v7h2V5z"/>
	<path id="Path_18965" class="st0" d="M12,8c-2.2,0-4,1.8-4,4s1.8,4,4,4s4-1.8,4-4S14.2,8,12,8z M12,14c-1.1,0-2-0.9-2-2s0.9-2,2-2
		s2,0.9,2,2S13.1,14,12,14z"/>
	<path id="Path_18966" class="st0" d="M18,19H6v-2.6l0.8,0.8l1.4-1.4L5,12.6l-3.2,3.2l1.4,1.4L4,16.4V21h16v-7h-2V19z"/>
</g>
<path id="Rectangle_4647" class="st1" d="M0,0h24v24H0V0z"/>
</svg>
