<?xml version="1.0" encoding="utf-8"?>
<!-- Generator: Adobe Illustrator 23.0.1, SVG Export Plug-In . SVG Version: 6.00 Build 0)  -->
<svg version="1.1" id="ic_error_connection" shape-rendering="geometricPrecision"
	 xmlns="http://www.w3.org/2000/svg" xmlns:xlink="http://www.w3.org/1999/xlink" x="0px" y="0px" viewBox="0 0 24 24"
	 style="enable-background:new 0 0 24 24;" xml:space="preserve">
<style type="text/css">
	.st0{fill:#7C7687;}
	.st1{fill:none;}
	.st2{fill:#FFFFFF;}
</style>
<g id="Group_8828">
	<g id="Group_8825">
		<path id="Path_18883" class="st0" d="M-14,4.2c-3,0.4-5.8,1.7-8.1,3.8l1.3,1.5c1.9-1.7,4.2-2.8,6.7-3.2V4.2z"/>
		<path id="Path_18884" class="st0" d="M-10,4.2v2c2.5,0.4,4.9,1.5,6.7,3.2L-2,7.9C-4.2,5.9-7,4.6-10,4.2z"/>
	</g>
	<g id="Group_8826">
		<path id="Path_18885" class="st0" d="M-14,8.2c-2,0.4-3.9,1.3-5.4,2.7l1.3,1.5c1.1-1,2.5-1.8,4-2.1V8.2z"/>
		<path id="Path_18886" class="st0" d="M-10,8.2v2.1c1.5,0.3,2.9,1.1,4,2.1l1.3-1.5C-6.2,9.5-8,8.6-10,8.2z"/>
	</g>
	<g id="Group_8827">
		<path id="Path_18887" class="st0" d="M-14,12.3c-1,0.3-1.9,0.8-2.7,1.5l1.3,1.5c0.4-0.4,0.9-0.6,1.4-0.8V12.3z"/>
		<path id="Path_18888" class="st0" d="M-10,12.3v2.2c0.5,0.2,1,0.5,1.4,0.8l1.3-1.5C-8.1,13.1-9,12.6-10,12.3z"/>
	</g>
</g>
<path id="Rectangle_4409" class="st1" d="M0,0h24v24H0V0z"/>
<g>
	<path class="st0" d="M19.5,17.8c-0.4-0.4-0.8-0.9-1.2-1.3c1.4-1.7,2.2-3.7,2.3-6c0.1-2.2-0.5-4.3-1.8-6.1c0.4-0.4,0.8-0.9,1.2-1.3
		C23.1,7,23.3,13.4,19.5,17.8z"/>
	<path class="st0" d="M4.1,3c0.4,0.4,0.8,0.9,1.2,1.3C4,6.2,3.4,8.2,3.5,10.5c0.1,2.2,0.8,4.2,2.3,6c-0.4,0.4-0.8,0.9-1.2,1.3
		C1.1,14,0.5,7.6,4.1,3z"/>
	<path class="st0" d="M12.8,15.2c0,1,0,2,0,3c0,0.5-0.3,0.8-0.8,0.9c-0.5,0.1-1-0.3-1-0.8c0-0.1,0-0.1,0-0.2c0-1.9,0-3.9,0-5.8
		c0-0.1,0-0.1-0.1-0.2c-0.6-0.4-0.9-1.2-0.8-1.9c0.2-0.7,0.8-1.3,1.5-1.4c0.8-0.1,1.7,0.4,2,1.2c0.3,0.8,0,1.7-0.7,2.2
		c-0.1,0-0.1,0.1-0.1,0.2C12.8,13.2,12.8,14.2,12.8,15.2C12.8,15.2,12.8,15.2,12.8,15.2z"/>
	<path class="st0" d="M5.8,4.9c0.3,0.3,0.5,0.6,0.8,0.9C6.7,5.9,6.9,6,7,6.2c0,0,0.1,0.1,0,0.1C6.6,7.1,6.3,7.9,6.1,8.8
		C6,9.6,6,10.4,6.1,11.1c0.2,1.2,0.6,2.4,1.4,3.4c0,0,0,0,0,0c-0.4,0.4-0.8,0.9-1.2,1.3c-1.1-1.4-1.8-3-2-4.7C4,8.9,4.5,6.8,5.8,4.9
		z"/>
	<path class="st0" d="M16.9,6.2c0.4-0.4,0.8-0.9,1.2-1.3c2.3,3.2,2.2,7.9-0.4,11c-0.4-0.4-0.8-0.9-1.2-1.3
		C18.3,11.9,18.5,9.1,16.9,6.2z"/>
	<path class="st0" d="M9.3,12.6c-0.4,0.4-0.8,0.9-1.2,1.3c-1.6-1.9-1.9-4.8-0.4-7.1c0,0,0,0.1,0.1,0.1c0.4,0.4,0.8,0.8,1.1,1.2
		c0,0,0,0.1,0,0.1C8.2,9.8,8.4,11.2,9.3,12.6C9.3,12.6,9.3,12.6,9.3,12.6z"/>
	<path class="st0" d="M15.9,13.9c-0.4-0.4-0.8-0.9-1.2-1.3c0.1-0.2,0.3-0.4,0.4-0.7c0.6-1.2,0.6-2.4,0-3.6c0-0.1,0-0.1,0-0.2
		c0.4-0.4,0.8-0.8,1.1-1.2c0,0,0,0,0.1-0.1C17.7,9,17.6,11.9,15.9,13.9z"/>
</g>
<circle id="Ellipse_601" class="st2" cx="11.9" cy="10.4" r="1.2"/>
<path id="Path_18889" class="st0" d="M11.3,1.7v6.5c0.4-0.1,0.8-0.1,1.2,0V1.7H11.3z"/>
</svg>
