<?xml version="1.0" encoding="utf-8"?>
<!-- Generator: Adobe Illustrator 23.0.1, SVG Export Plug-In . SVG Version: 6.00 Build 0)  -->
<svg version="1.1" id="Layer_1" shape-rendering="geometricPrecision"
	 xmlns="http://www.w3.org/2000/svg" xmlns:xlink="http://www.w3.org/1999/xlink" x="0px" y="0px" viewBox="0 0 24 24"
	 style="enable-background:new 0 0 24 24;" xml:space="preserve">
<style type="text/css">
	.st0{fill-rule:evenodd;clip-rule:evenodd;fill:#FFDD5F;}
	.st1{fill:none;}
</style>
<g id="check_active" transform="translate(-290 -244)">
	<g id="Group_8199" transform="translate(291 245)">
		<path id="check_on_light" class="st0" d="M19.6,0H2.4C1.1,0,0,1.1,0,2.4v17.1C0,20.9,1.1,22,2.4,22h17.1c1.3,0,2.4-1.1,2.4-2.4
			V2.4C22,1.1,20.9,0,19.6,0z M8.6,17.1l-6.1-5.9l1.7-1.6l4.4,4.2l9.3-8.9l1.7,1.6C19.6,6.5,8.6,17.1,8.6,17.1z"/>
	</g>
	<path id="Rectangle_4538" class="st1" d="M290,244h24v24h-24V244z"/>
</g>
</svg>
