<?xml version="1.0" encoding="utf-8"?>
<!-- Generator: Adobe Illustrator 23.0.1, SVG Export Plug-In . SVG Version: 6.00 Build 0)  -->
<svg version="1.1" id="Layer_1" xmlns="http://www.w3.org/2000/svg" xmlns:xlink="http://www.w3.org/1999/xlink" x="0px" y="0px"
	 viewBox="0 0 24 40" style="enable-background:new 0 0 24 40;" xml:space="preserve">
<style type="text/css">
	.st0{fill:#A3A38D;}
</style>
<title>Receive off</title>
<desc>Created with Sketch.</desc>
<path class="st0" d="M9.9,14.3c0,0.4,0,0.8,0,1.2c-0.4,0-0.7,0-1.1,0c-0.4,0-0.9,0-1.3,0c-0.2,0-0.2,0.1-0.3,0.2
	c-0.9,2.2-1.8,4.4-2.8,6.5c-0.6,1.4-1.1,2.7-1.7,4.1c0,0.1-0.1,0.1-0.1,0.2c0.1,0,0.2,0,0.3,0c1.7,0,3.4,0,5.1,0
	c0.2,0,0.3,0,0.4,0.2c0.4,0.6,0.8,1.2,1.2,1.7c0.1,0.1,0.2,0.1,0.3,0.1c1.4,0,2.8,0,4.2,0c0.1,0,0.2-0.1,0.3-0.1
	c0.4-0.6,0.8-1.2,1.2-1.7c0.1-0.1,0.2-0.2,0.4-0.2c1.7,0,3.4,0,5.1,0c0.1,0,0.2,0,0.3,0c-0.2-0.4-0.3-0.8-0.5-1.2
	c-1.4-3.2-2.7-6.4-4.1-9.6c-0.1-0.2-0.2-0.3-0.4-0.3c-0.7,0-1.5,0-2.3,0c0-0.4,0-0.8,0-1.3c0.1,0,0.1,0,0.2,0c1.1,0,2.3,0,3.4,0
	c0.2,0,0.2,0.1,0.3,0.2c1.6,3.9,3.2,7.8,4.9,11.7c0.1,0.3,0.2,0.6,0.2,1c0,2.5,0,5.1,0,7.6c0,0.3,0,0.3-0.3,0.3
	c-7.1,0-14.3,0-21.4,0c-0.3,0-0.3,0-0.3-0.3c0-2.7,0-5.3,0-8c0-0.1,0-0.2,0.1-0.4c1-2.5,2.1-5,3.1-7.5c0.6-1.5,1.2-3,1.9-4.5
	c0-0.1,0.1-0.1,0.2-0.1C7.4,14.3,8.6,14.3,9.9,14.3C9.8,14.3,9.9,14.3,9.9,14.3z"/>
<path class="st0" d="M13.4,22c0.9,0,1.7,0,2.6,0c-1.3,1.5-2.7,3-4,4.5c-1.3-1.5-2.6-3-4-4.5c0.9,0,1.7,0,2.6,0c0-0.1,0-0.2,0-0.3
	c0-2.9,0-5.7,0-8.6c0-0.3,0-0.3,0.3-0.3c0.8,0,1.6,0,2.5,0C13.4,15.9,13.4,19,13.4,22z"/>
</svg>
