<?xml version="1.0" encoding="utf-8"?>
<!-- Generator: Adobe Illustrator 23.0.1, SVG Export Plug-In . SVG Version: 6.00 Build 0)  -->
<svg version="1.1" id="Layer_1" xmlns="http://www.w3.org/2000/svg" xmlns:xlink="http://www.w3.org/1999/xlink" x="0px" y="0px"
	 viewBox="0 0 24 40" style="enable-background:new 0 0 24 40;" xml:space="preserve">
<style type="text/css">
	.st0{fill:#A3A38D;}
</style>
<title>Send Off Copy</title>
<desc>Created with Sketch.</desc>
<g>
	<path class="st0" d="M0.8,31.8c7.5-3.2,14.9-6.4,22.4-9.6C15.7,19,8.3,15.8,0.8,12.6c0,2.5,0,5,0,7.5c5.3,0.7,10.5,1.4,15.8,2.1
		c0,0,0,0,0,0.1c-5.3,0.7-10.5,1.4-15.8,2.1C0.8,26.8,0.8,29.3,0.8,31.8z"/>
	<path class="st0" d="M0.8,31.8c0-2.5,0-5,0-7.5c5.3-0.7,10.5-1.4,15.8-2.1c0,0,0,0,0-0.1c-5.3-0.7-10.5-1.4-15.8-2.1
		c0-2.5,0-5,0-7.5c7.4,3.2,14.9,6.4,22.4,9.6C15.7,25.4,8.3,28.6,0.8,31.8z"/>
</g>
</svg>
