<?xml version="1.0" encoding="utf-8"?>
<!-- Generator: Adobe Illustrator 23.0.1, SVG Export Plug-In . SVG Version: 6.00 Build 0)  -->
<svg version="1.1" id="Layer_1" xmlns="http://www.w3.org/2000/svg" xmlns:xlink="http://www.w3.org/1999/xlink" x="0px" y="0px"
	 viewBox="0 0 24 40" style="enable-background:new 0 0 24 40;" xml:space="preserve">
<style type="text/css">
	.st0{fill:#A3A38D;}
</style>
<title>Dashboard</title>
<desc>Created with Sketch.</desc>
<g>
	<path class="st0" d="M13.7,30.3c0-1.6,0-3.3,0-4.9c-1.1,0-2.2,0-3.3,0c0,1.6,0,3.3,0,4.9c-0.1,0-0.2,0-0.3,0c-1.5,0-3,0-4.6,0
		c-0.6,0-0.9-0.3-0.9-0.9c0-2,0-3.9,0-5.9c0-0.2,0-0.3,0.2-0.4c2.4-2,4.8-3.9,7.1-5.9c0,0,0.1-0.1,0.1-0.1c0.8,0.6,1.5,1.2,2.2,1.8
		c1.7,1.4,3.3,2.8,5,4.1c0.1,0.1,0.2,0.2,0.2,0.3c0,2,0,4,0,6c0,0.5-0.3,0.9-0.8,0.9c-1.6,0-3.2,0-4.8,0
		C13.7,30.3,13.7,30.3,13.7,30.3z"/>
	<path class="st0" d="M16.1,16.8c0-0.8,0-1.5,0-2.2c0-0.6,0.1-0.7,0.7-0.7c0.7,0,1.4,0,2,0c0.4,0,0.5,0.1,0.5,0.5c0,1.6,0,3.3,0,4.9
		c0,0.2,0,0.3,0.2,0.4c0.9,0.7,1.7,1.4,2.6,2.1c0.3,0.2,0.3,0.4,0.1,0.7c-0.2,0.3-0.4,0.5-0.6,0.8c-0.2,0.3-0.5,0.3-0.7,0.1
		c-2.6-2.2-5.2-4.3-7.8-6.5c-0.3-0.3-0.7-0.6-1.1-0.9c-0.4,0.3-0.8,0.6-1.1,0.9c-2.6,2.1-5.1,4.3-7.7,6.4c-0.3,0.3-0.5,0.2-0.8-0.1
		C2.2,23,2,22.8,1.8,22.5c-0.2-0.3-0.2-0.5,0.1-0.7c2.3-1.9,4.6-3.8,6.8-5.7c0.7-0.6,1.5-1.2,2.2-1.8c0.7-0.6,1.5-0.6,2.2,0
		c0.9,0.8,1.9,1.6,2.8,2.4C16,16.6,16,16.7,16.1,16.8z"/>
</g>
</svg>
