<?xml version="1.0" encoding="utf-8"?>
<!-- Generator: Adobe Illustrator 23.0.1, SVG Export Plug-In . SVG Version: 6.00 Build 0)  -->
<svg version="1.1" id="Layer_1" xmlns="http://www.w3.org/2000/svg" xmlns:xlink="http://www.w3.org/1999/xlink" x="0px" y="0px"
	 viewBox="0 0 24 30" style="enable-background:new 0 0 24 30;" xml:space="preserve">
<style type="text/css">
	.st0{fill:#FFFFFF;}
</style>
<title>Master Active</title>
<desc>Created with Sketch.</desc>
<g>
	<path class="st0" d="M12.4,7.4c0.2,0.1,0.4,0.1,0.6,0.2c1.4,0.7,1.4,2.6,0.1,3.4c-0.2,0.1-0.3,0.3-0.3,0.5c0,0.4-0.1,0.8,0.1,1.1
		c0.2,0.2,0.6,0.2,1,0.4c0.3,0.1,0.6,0.2,0.8,0.4c0.3,0.1,0.5,0.3,0.8,0.5c0.3-0.3,0.7-0.7,1-1c0.1-0.1,0-0.3,0-0.4
		c-0.2-1.1,0.4-2.2,1.5-2.4c1.1-0.2,2.2,0.5,2.4,1.6c0.3,1.4-1,2.6-2.4,2.3c-0.3-0.1-0.4,0-0.6,0.2c-0.3,0.3-0.5,0.5-0.8,0.8
		c0.3,0.5,0.5,1,0.7,1.5c0.1,0.2,0.2,0.5,0.2,0.8c0,0.4,0.2,0.6,0.6,0.5c0.1,0,0.1,0,0.2,0c0.5,0,0.9,0,1.2-0.5
		c0.5-0.7,1.5-0.9,2.2-0.5c0.8,0.3,1.3,1.1,1.2,2c-0.1,0.9-0.7,1.6-1.5,1.8c-0.8,0.2-1.7-0.1-2.1-0.9c-0.1-0.2-0.2-0.3-0.5-0.3
		c-0.4,0-0.8,0-1.1,0c-0.4,0.9-0.8,1.8-1.2,2.8c0.3,0.2,0.6,0.6,0.9,0.9c0.1,0.1,0.3,0.1,0.4,0c1.1-0.2,2.2,0.4,2.4,1.5
		c0.2,1-0.4,2.1-1.5,2.4c-1.4,0.4-2.7-0.9-2.4-2.4c0.1-0.2,0-0.4-0.2-0.6c-0.3-0.3-0.6-0.6-0.7-0.8c-1,0.4-1.9,0.8-2.8,1.2
		c0,0.4,0,0.8,0,1.3c0,0.1,0.2,0.3,0.3,0.3c0.7,0.4,1,1.2,0.9,2c-0.2,0.8-0.7,1.4-1.5,1.6c-0.8,0.2-1.6-0.1-2.1-0.8
		c-0.7-0.9-0.5-2.3,0.5-2.9c0.2-0.1,0.3-0.3,0.3-0.5c0-0.4,0.1-0.8-0.1-1.1c-0.2-0.2-0.7-0.2-1-0.4c-0.3-0.1-0.6-0.2-0.8-0.4
		c-0.3-0.1-0.5-0.3-0.8-0.5c-0.3,0.3-0.6,0.7-0.9,1c-0.1,0.1-0.1,0.3,0,0.4c0.2,1.1-0.4,2.2-1.5,2.4c-1,0.3-2.1-0.4-2.4-1.5
		C3.3,24,4.5,22.6,6,22.9c0.3,0.1,0.4,0,0.6-0.2c0.3-0.3,0.5-0.5,0.8-0.8c-0.6-0.8-0.9-1.6-1.1-2.5c0-0.1-0.1-0.2-0.2-0.2
		c-0.1,0-0.3,0-0.4,0c-0.5,0-0.9,0-1.3,0.5C3.4,21,1.6,20.6,1,19.2C1,19,1,18.9,0.9,18.8c0-0.3,0-0.5,0-0.8c0,0,0,0,0-0.1
		c0.2-0.9,0.8-1.4,1.7-1.5c0.9-0.1,1.6,0.2,2.1,1c0.1,0.1,0.2,0.2,0.3,0.2c0.4,0,0.7,0,1.1,0c0.1,0,0.3-0.1,0.3-0.2
		c0.2-0.9,0.5-1.7,1.1-2.5c-0.3-0.3-0.6-0.6-0.9-0.9C6.4,14,6.3,13.9,6,14C5.7,14,5.4,14,5.2,14c-1.1-0.2-1.8-1.3-1.5-2.4
		c0.2-1.1,1.3-1.8,2.4-1.6c1.1,0.2,1.8,1.3,1.6,2.4c0,0.1,0,0.3,0,0.4c0.3,0.4,0.6,0.7,1,1.1c0.8-0.6,1.6-0.9,2.4-1.1
		c0.2,0,0.3-0.1,0.3-0.3c0-0.3,0-0.6,0-0.9c0-0.3-0.1-0.4-0.3-0.5c-0.8-0.5-1.1-1.4-0.8-2.3c0.2-0.8,0.8-1.2,1.5-1.4
		C11.9,7.4,12.1,7.4,12.4,7.4z M12,22.6c2.3,0,4.1-1.8,4.1-4.1c0-2.3-1.8-4.2-4.1-4.2c-2.3,0-4.1,1.8-4.2,4.1
		C7.9,20.7,9.7,22.6,12,22.6z M12.5,9.5c0-0.1,0-0.1,0-0.2C12.3,9.2,12.2,9,12,9c-0.3,0-0.4,0.2-0.4,0.4c0,0.2,0.2,0.4,0.4,0.4
		C12.1,9.8,12.3,9.6,12.5,9.5z M2.8,18.9c0.1,0,0.1,0,0.2,0c0.1-0.1,0.3-0.3,0.3-0.4c0-0.1-0.2-0.4-0.3-0.4
		c-0.2-0.1-0.4,0.1-0.4,0.3C2.5,18.6,2.7,18.8,2.8,18.9z M21,18.9c0.1,0,0.1,0,0.2,0c0.1-0.2,0.3-0.3,0.3-0.5c0-0.1-0.2-0.3-0.4-0.4
		c-0.2-0.1-0.4,0.1-0.4,0.4C20.7,18.6,20.9,18.8,21,18.9z M11.9,28c0.1,0,0.1,0,0.2,0c0.1-0.2,0.3-0.3,0.3-0.5
		c0-0.2-0.2-0.4-0.4-0.4c-0.2,0-0.4,0.2-0.4,0.4C11.6,27.7,11.8,27.9,11.9,28z M6,12.2C6,12.1,6,12,6,12c-0.1-0.1-0.3-0.3-0.4-0.3
		c-0.2-0.1-0.4,0.1-0.4,0.4c0,0.2,0.2,0.4,0.3,0.4C5.7,12.4,5.9,12.3,6,12.2z M18.9,12.1c0-0.1,0-0.1,0-0.2
		c-0.2-0.1-0.3-0.3-0.5-0.3c-0.1,0-0.3,0.2-0.4,0.4c-0.1,0.2,0.1,0.4,0.4,0.4C18.6,12.4,18.7,12.2,18.9,12.1z M5.7,24.4
		c-0.1,0-0.1,0-0.2,0c-0.1,0.2-0.3,0.3-0.3,0.5c0,0.1,0.2,0.3,0.4,0.4C5.8,25.3,6,25.2,6,24.9C5.9,24.7,5.8,24.6,5.7,24.4z M18.9,25
		c0-0.1,0-0.1,0-0.2c-0.1-0.1-0.3-0.3-0.4-0.3c-0.1,0-0.4,0.2-0.4,0.3c-0.1,0.2,0.1,0.4,0.3,0.4C18.5,25.3,18.7,25.1,18.9,25z"/>
	<path class="st0" d="M12,21c-1.4,0-2.5-1.2-2.5-2.6c0-1.4,1.2-2.5,2.6-2.5c1.4,0,2.5,1.2,2.5,2.6C14.5,19.9,13.4,21,12,21z
		 M12,19.4c0.5,0,1-0.4,1-0.9c0-0.5-0.4-1-0.9-1c-0.5,0-1,0.4-1,0.9C11,19,11.4,19.4,12,19.4z"/>
</g>
</svg>
