<?xml version="1.0" encoding="utf-8"?>
<!-- Generator: Adobe Illustrator 23.0.1, SVG Export Plug-In . SVG Version: 6.00 Build 0)  -->
<svg version="1.1" id="Layer_1" xmlns="http://www.w3.org/2000/svg" xmlns:xlink="http://www.w3.org/1999/xlink" x="0px" y="0px"
	 viewBox="0 0 24 40" style="enable-background:new 0 0 24 40;" xml:space="preserve">
<style type="text/css">
	.st0{fill:#FFDD5F;}
</style>
<title>Dashboard</title>
<desc>Created with Sketch.</desc>
<g>
	<path class="st0" d="M13.7,30.4c0-1.8,0-3.5,0-5.3c-1.2,0-2.4,0-3.6,0c0,1.8,0,3.5,0,5.3c-0.1,0-0.2,0-0.3,0c-1.7,0-3.3,0-5,0
		c-0.7,0-1-0.3-1-1c0-2.1,0-4.3,0-6.4c0-0.2,0-0.3,0.2-0.4c2.6-2.1,5.2-4.3,7.7-6.4c0,0,0.1-0.1,0.1-0.1c0.8,0.7,1.6,1.3,2.4,2
		c1.8,1.5,3.6,3,5.4,4.5c0.1,0.1,0.2,0.2,0.2,0.4c0,2.2,0,4.3,0,6.5c0,0.6-0.4,1-0.9,1c-1.7,0-3.5,0-5.2,0
		C13.8,30.4,13.7,30.4,13.7,30.4z"/>
	<path class="st0" d="M16.3,15.7c0-0.8,0-1.6,0-2.4c0-0.7,0.1-0.8,0.8-0.8c0.7,0,1.5,0,2.2,0c0.5,0,0.6,0.1,0.6,0.6
		c0,1.8,0,3.5,0,5.3c0,0.2,0,0.3,0.2,0.4c0.9,0.8,1.9,1.5,2.8,2.3c0.3,0.3,0.3,0.5,0.1,0.8c-0.2,0.3-0.5,0.6-0.7,0.8
		c-0.3,0.3-0.5,0.3-0.8,0.1c-2.8-2.3-5.6-4.7-8.4-7c-0.4-0.3-0.7-0.6-1.1-1c-0.4,0.3-0.8,0.7-1.2,1c-2.8,2.3-5.5,4.6-8.3,6.9
		c-0.3,0.3-0.6,0.3-0.8-0.1C1.3,22.5,1,22.2,0.8,22c-0.3-0.3-0.2-0.5,0.1-0.8c2.5-2.1,5-4.1,7.4-6.2c0.8-0.7,1.6-1.3,2.4-2
		c0.7-0.6,1.6-0.6,2.4,0c1,0.8,2,1.7,3.1,2.6C16.2,15.6,16.2,15.6,16.3,15.7z"/>
</g>
</svg>
