<?xml version="1.0" encoding="utf-8"?>
<!-- Generator: Adobe Illustrator 23.0.1, SVG Export Plug-In . SVG Version: 6.00 Build 0)  -->
<svg version="1.1" id="Layer_1" xmlns="http://www.w3.org/2000/svg" xmlns:xlink="http://www.w3.org/1999/xlink" x="0px" y="0px"
	 viewBox="0 0 24 31" style="enable-background:new 0 0 24 31;" xml:space="preserve">
<style type="text/css">
	.st0{fill:#FFDD5F;}
</style>
<title>Cold Staking</title>
<desc>Created with Sketch.</desc>
<path class="st0" d="M21.7,22.6l-3-1.6l2.7-0.5c0.5,0,0.8-0.5,0.5-1.1c0-0.5-0.5-0.8-1.1-0.5L16.5,20l-3-1.6l3-1.6l4.3,1.1h0.3
	c0.3,0,0.8-0.3,0.8-0.5c0-0.5-0.3-0.8-0.5-1.1l-2.7-0.5l3-1.6c0.5-0.3,0.5-0.8,0.3-1.1c-0.3-0.3-0.8-0.5-1.1-0.3l-3,1.6l0.8-2.4
	c0-0.5-0.3-0.8-0.5-1.1c-0.5,0-1.1,0.3-1.1,0.5L16,15.3l-3,1.6v-3.3l3.3-3c0.3-0.3,0.3-0.8,0-1.1c-0.3-0.3-0.8-0.3-1.4,0l-1.8,2V8.3
	c0-0.5-0.3-0.8-0.8-0.8s-0.8,0.3-0.8,0.8v3.2L9.3,9.4C9,9.1,8.5,9.1,7.9,9.4c-0.3,0.3-0.3,0.8,0,1.1l3.3,3v3.3l-3-1.6l-1.1-4.1
	c0-0.5-0.5-0.8-1.1-0.5c-0.5,0-0.8,0.5-0.5,1.1l0.8,2.4l-3-1.6c-0.5-0.3-1.1,0-1.1,0.3c-0.3,0.3,0,0.8,0.3,1.1l3,1.6L2.8,16
	c-0.5,0-0.8,0.5-0.5,1.1c-0.1,0.1,0.5,0.4,0.7,0.4h0.3l4.3-1.1l3,1.6l-3,1.6l-4.3-1.1c-0.5,0-1.1,0.3-1.1,0.5c0,0.5,0.3,0.8,0.5,1.1
	l2.7,0.5l-3,1.6c-0.5,0.3-0.5,0.8-0.3,1.1c0.3,0.3,0.5,0.5,0.8,0.5s0.3,0,0.5,0l2.7-1.6l-0.8,2.7c0,0.5,0.3,0.8,0.5,1.1h0.3
	c0.3,0,0.8-0.3,0.8-0.5L8,21.4l3-1.6v3.3l-3.3,3c-0.3,0.3-0.3,0.8,0,1.1s0.8,0.3,1.4,0l1.9-1.9v3.3c0,0.5,0.3,0.8,0.8,0.8
	s0.8-0.3,0.8-0.8v-3.3l1.9,1.9c0.5,0.3,0.5,0.3,0.7,0.3c0.3,0,0.5,0,0.5-0.3c0.3-0.3,0.3-0.8,0-1.1l-3.3-3v-3.5l3,1.6l1.1,4.1
	c0,0.3,0.5,0.5,0.8,0.5h0.3c0.5,0,0.8-0.5,0.5-1.1v-2.4l3,1.6c0.3,0,0.3,0,0.5,0c0.3,0,0.5-0.3,0.8-0.5
	C22.6,23.5,22.3,22.9,21.7,22.6z"/>
</svg>
