<?xml version="1.0" encoding="utf-8"?>
<!-- Generator: Adobe Illustrator 23.0.1, SVG Export Plug-In . SVG Version: 6.00 Build 0)  -->
<svg version="1.1" id="Layer_1" xmlns="http://www.w3.org/2000/svg" xmlns:xlink="http://www.w3.org/1999/xlink" x="0px" y="0px"
	 viewBox="0 0 24 30" style="enable-background:new 0 0 24 30;" xml:space="preserve">
<style type="text/css">
	.st0{fill:#FFDD5F;}
</style>
<title>Master Active</title>
<desc>Created with Sketch.</desc>
<title>Master Active</title>
<desc>Created with Sketch.</desc>
<g>
	<path class="st0" d="M12.4,6.8c0.2,0.1,0.4,0.1,0.6,0.2c1.4,0.7,1.4,2.6,0.1,3.4c-0.2,0.1-0.3,0.3-0.3,0.5c0,0.4-0.1,0.8,0.1,1.1
		c0.2,0.2,0.6,0.2,1,0.4c0.3,0.1,0.6,0.2,0.8,0.4c0.3,0.1,0.5,0.3,0.8,0.5c0.3-0.3,0.7-0.7,1-1c0.1-0.1,0-0.3,0-0.4
		c-0.2-1.1,0.4-2.2,1.5-2.4c1.1-0.2,2.2,0.5,2.4,1.6c0.3,1.4-1,2.6-2.4,2.3c-0.3-0.1-0.4,0-0.6,0.2c-0.3,0.3-0.5,0.5-0.8,0.8
		c0.3,0.5,0.5,1,0.7,1.5c0.1,0.2,0.2,0.5,0.2,0.8c0,0.4,0.2,0.6,0.6,0.5c0.1,0,0.1,0,0.2,0c0.5,0,0.9,0,1.2-0.5
		c0.5-0.7,1.5-0.9,2.2-0.5c0.8,0.3,1.3,1.1,1.2,2c-0.1,0.9-0.7,1.6-1.5,1.8c-0.8,0.2-1.7-0.1-2.1-0.9c-0.1-0.2-0.2-0.3-0.5-0.3
		c-0.4,0-0.8,0-1.1,0c-0.4,0.9-0.8,1.8-1.2,2.8c0.3,0.2,0.6,0.6,0.9,0.9c0.1,0.1,0.3,0.1,0.4,0c1.1-0.2,2.2,0.4,2.4,1.5
		c0.2,1-0.4,2.1-1.5,2.4c-1.4,0.4-2.7-0.9-2.4-2.4c0.1-0.2,0-0.4-0.2-0.6c-0.3-0.3-0.6-0.6-0.7-0.8c-1,0.4-1.9,0.8-2.8,1.2
		c0,0.4,0,0.8,0,1.3c0,0.1,0.2,0.3,0.3,0.3c0.7,0.4,1,1.2,0.9,2c-0.2,0.8-0.7,1.4-1.5,1.6c-0.8,0.2-1.6-0.1-2.1-0.8
		c-0.7-0.9-0.5-2.3,0.5-2.9c0.2-0.1,0.3-0.3,0.3-0.5c0-0.4,0.1-0.8-0.1-1.1c-0.2-0.2-0.7-0.2-1-0.4c-0.3-0.1-0.6-0.2-0.8-0.4
		c-0.3-0.1-0.5-0.3-0.8-0.5c-0.3,0.3-0.6,0.7-0.9,1c-0.1,0.1-0.1,0.3,0,0.4C7.8,24.9,7.1,26,6,26.2c-1,0.3-2.1-0.4-2.4-1.5
		C3.3,23.4,4.5,22,6,22.3c0.3,0.1,0.4,0,0.6-0.2c0.3-0.3,0.5-0.5,0.8-0.8c-0.6-0.8-0.9-1.6-1.1-2.5c0-0.1-0.1-0.2-0.2-0.2
		c-0.1,0-0.3,0-0.4,0c-0.5,0-0.9,0-1.3,0.5C3.4,20.4,1.6,20,1,18.6c0-0.1-0.1-0.2-0.1-0.3c0-0.3,0-0.5,0-0.8c0,0,0,0,0-0.1
		c0.2-0.9,0.8-1.4,1.7-1.5c0.9-0.1,1.6,0.2,2.1,1C4.7,17,4.9,17.1,5,17.1c0.4,0,0.7,0,1.1,0c0.1,0,0.3-0.1,0.3-0.2
		c0.2-0.9,0.5-1.7,1.1-2.5c-0.3-0.3-0.6-0.6-0.9-0.9c-0.2-0.2-0.3-0.2-0.5-0.2c-0.3,0.1-0.6,0.1-0.9,0c-1.1-0.2-1.8-1.3-1.5-2.4
		C3.8,10,4.9,9.3,6,9.5c1.1,0.2,1.8,1.3,1.6,2.4c0,0.1,0,0.3,0,0.4c0.3,0.4,0.6,0.7,1,1.1c0.8-0.6,1.6-0.9,2.4-1.1
		c0.2,0,0.3-0.1,0.3-0.3c0-0.3,0-0.6,0-0.9c0-0.3-0.1-0.4-0.3-0.5c-0.8-0.5-1.1-1.4-0.8-2.3c0.2-0.8,0.8-1.2,1.5-1.4
		C11.9,6.8,12.1,6.8,12.4,6.8z M12,22c2.3,0,4.1-1.8,4.1-4.1c0-2.3-1.8-4.2-4.1-4.2c-2.3,0-4.1,1.8-4.2,4.1C7.9,20.1,9.7,22,12,22z
		 M12.5,8.9c0-0.1,0-0.1,0-0.2c-0.2-0.1-0.3-0.3-0.5-0.3c-0.3,0-0.4,0.2-0.4,0.4c0,0.2,0.2,0.4,0.4,0.4C12.1,9.2,12.3,9,12.5,8.9z
		 M2.8,18.3c0.1,0,0.1,0,0.2,0c0.1-0.1,0.3-0.3,0.3-0.4c0-0.1-0.2-0.4-0.3-0.4c-0.2-0.1-0.4,0.1-0.4,0.3C2.5,18,2.7,18.2,2.8,18.3z
		 M21,18.3c0.1,0,0.1,0,0.2,0c0.1-0.2,0.3-0.3,0.3-0.5c0-0.1-0.2-0.3-0.4-0.4c-0.2-0.1-0.4,0.1-0.4,0.4C20.7,18,20.9,18.2,21,18.3z
		 M11.9,27.4c0.1,0,0.1,0,0.2,0c0.1-0.2,0.3-0.3,0.3-0.5c0-0.2-0.2-0.4-0.4-0.4c-0.2,0-0.4,0.2-0.4,0.4
		C11.6,27.1,11.8,27.3,11.9,27.4z M6,11.6c0-0.1,0-0.1,0-0.2c-0.1-0.1-0.3-0.3-0.4-0.3c-0.2-0.1-0.4,0.1-0.4,0.4
		c0,0.2,0.2,0.4,0.3,0.4C5.7,11.8,5.9,11.7,6,11.6z M18.9,11.5c0-0.1,0-0.1,0-0.2c-0.2-0.1-0.3-0.3-0.5-0.3c-0.1,0-0.3,0.2-0.4,0.4
		c-0.1,0.2,0.1,0.4,0.4,0.4C18.6,11.8,18.7,11.6,18.9,11.5z M5.7,23.8c-0.1,0-0.1,0-0.2,0c-0.1,0.2-0.3,0.3-0.3,0.5
		c0,0.1,0.2,0.3,0.4,0.4C5.8,24.7,6,24.6,6,24.3C5.9,24.1,5.8,24,5.7,23.8z M18.9,24.4c0-0.1,0-0.1,0-0.2c-0.1-0.1-0.3-0.3-0.4-0.3
		c-0.1,0-0.4,0.2-0.4,0.3c-0.1,0.2,0.1,0.4,0.3,0.4C18.5,24.7,18.7,24.5,18.9,24.4z"/>
	<path class="st0" d="M12,20.4c-1.4,0-2.5-1.2-2.5-2.6c0-1.4,1.2-2.5,2.6-2.5c1.4,0,2.5,1.2,2.5,2.6C14.5,19.3,13.4,20.4,12,20.4z
		 M12,18.8c0.5,0,1-0.4,1-0.9c0-0.5-0.4-1-0.9-1c-0.5,0-1,0.4-1,0.9C11,18.4,11.4,18.8,12,18.8z"/>
</g>
</svg>
