<?xml version="1.0" encoding="utf-8"?>
<!-- Generator: Adobe Illustrator 23.0.1, SVG Export Plug-In . SVG Version: 6.00 Build 0)  -->
<svg version="1.1" id="Layer_1" xmlns="http://www.w3.org/2000/svg" xmlns:xlink="http://www.w3.org/1999/xlink" x="0px" y="0px"
	 viewBox="0 0 24 40" style="enable-background:new 0 0 24 40;" xml:space="preserve">
<style type="text/css">
	.st0{fill:#A3A38D;}
</style>
<title>Settings</title>
<desc>Created with Sketch.</desc>
<g id="Settings">
	<g id="Group_8818" transform="translate(1.000000, 13.000000)">
		<g id="Group_8816">
			<path id="Path_18871" class="st0" d="M13.9,22H8.1l-0.3-3.1l-0.1,0l-2.4,2l-4.1-4.1l2-2.4l0-0.1L0,13.9V8.1l3.1-0.3l0-0.1l-2-2.4
				l4.1-4.1l2.4,2l0.1,0L8.1,0h5.8l0.3,3.1l0.1,0l2.4-2l4.1,4.1l-2,2.4l0,0.1L22,8.1v5.8l-3.1,0.3l0,0.1l2,2.4l-4.1,4.1l-2.4-2
				l-0.1,0L13.9,22z M9.9,20h2.2l0.3-2.6l0.6-0.2c0.3-0.1,0.7-0.2,1-0.4l0.6-0.3l2,1.7l1.5-1.5l-1.7-2l0.3-0.6
				c0.2-0.3,0.3-0.6,0.4-1l0.2-0.6l2.6-0.3V9.9l-2.6-0.3L17.2,9c-0.1-0.3-0.2-0.7-0.4-1l-0.3-0.6l1.7-2l-1.5-1.5l-2,1.7L14,5.2
				c-0.3-0.2-0.7-0.3-1-0.4l-0.6-0.2L12.1,2H9.9L9.6,4.6L9,4.8C8.7,4.9,8.3,5.1,8,5.2L7.4,5.5l-2-1.7L3.9,5.4l1.7,2L5.2,8
				C5.1,8.3,4.9,8.7,4.8,9L4.6,9.6L2,9.9v2.2l2.6,0.3L4.8,13c0.1,0.3,0.2,0.7,0.4,1l0.3,0.6l-1.7,2l1.5,1.5l2-1.7L8,16.8
				c0.3,0.2,0.7,0.3,1,0.4l0.6,0.2L9.9,20z"/>
		</g>
		<g id="Group_8817" transform="translate(7.000000, 7.000000)">
			<path id="Path_18872" class="st0" d="M4,8C1.8,8,0,6.2,0,4s1.8-4,4-4s4,1.8,4,4c0,1.1-0.4,2.1-1.2,2.8S5.1,8,4,8z M4,2
				C2.9,2,2,2.9,2,4s0.9,2,2,2s2-0.9,2-2S5.1,2,4,2z"/>
		</g>
	</g>
</g>
</svg>
