<?xml version="1.0" encoding="utf-8"?>
<!-- Generator: Adobe Illustrator 23.0.1, SVG Export Plug-In . SVG Version: 6.00 Build 0)  -->
<svg version="1.1" id="Layer_1" xmlns="http://www.w3.org/2000/svg" xmlns:xlink="http://www.w3.org/1999/xlink" x="0px" y="0px"
	 viewBox="0 0 24 40" style="enable-background:new 0 0 24 40;" xml:space="preserve">
<style type="text/css">
	.st0{fill:#FFDD5F;}
</style>
<title>Privacy Active</title>
<desc>Created with Sketch.</desc>
<g id="Privacy-Active">
	<g id="Group" transform="translate(1.000000, 13.000000)">
		<path id="Path_18869" class="st0" d="M20,10.1L17.8,0L11,1.2L4.2,0L2,10.1H0v2h22v-2H20z M5.8,2.3L11,3.2l5.2-0.9l1.7,7.8H4
			L5.8,2.3z"/>
		<path id="Path_18870" class="st0" d="M12,16.1h-2v-2H1v3.7c0.1,2.4,2.1,4.3,4.5,4.3c2.3-0.1,4.2-1.8,4.5-4H12c0.3,2.2,2.2,4,4.5,4
			c2.4,0,4.4-1.9,4.5-4.3v-3.7h-9V16.1z M8,17.9c-0.1,1.3-1.2,2.3-2.5,2.3s-2.4-1-2.5-2.3v-1.7h5V17.9z M14,16.1h5v1.7
			c-0.1,1.3-1.2,2.3-2.5,2.3s-2.4-1-2.5-2.3V16.1z"/>
	</g>
</g>
</svg>
