<?xml version="1.0" encoding="utf-8"?>
<!-- Generator: Adobe Illustrator 23.0.1, SVG Export Plug-In . SVG Version: 6.00 Build 0)  -->
<svg version="1.1" id="Layer_1" xmlns="http://www.w3.org/2000/svg" xmlns:xlink="http://www.w3.org/1999/xlink" x="0px" y="0px"
	 viewBox="0 0 24 30" style="enable-background:new 0 0 24 30;" xml:space="preserve">
<style type="text/css">
	.st0{fill:#A3A38D;}
</style>
<title>Master Active</title>
<desc>Created with Sketch.</desc>
<g>
	<path class="st0" d="M12.4,6.9C12.6,7,12.8,7,12.9,7.1c1.4,0.7,1.4,2.6,0.1,3.4c-0.2,0.1-0.3,0.3-0.3,0.5c0,0.4-0.1,0.8,0.1,1.1
		c0.2,0.2,0.6,0.2,1,0.4c0.3,0.1,0.6,0.2,0.8,0.4c0.3,0.1,0.5,0.3,0.8,0.5c0.3-0.3,0.7-0.7,1-1c0.1-0.1,0-0.3,0-0.4
		c-0.2-1.1,0.4-2.2,1.5-2.4c1.1-0.2,2.2,0.5,2.4,1.6c0.3,1.4-1,2.6-2.4,2.3c-0.3-0.1-0.4,0-0.6,0.2c-0.3,0.3-0.5,0.5-0.8,0.8
		c0.3,0.5,0.5,1,0.7,1.5c0.1,0.2,0.2,0.5,0.2,0.8c0,0.4,0.2,0.6,0.6,0.5c0.1,0,0.1,0,0.2,0c0.5,0,0.9,0,1.2-0.5
		c0.5-0.7,1.5-0.9,2.2-0.5c0.8,0.3,1.3,1.1,1.2,2c-0.1,0.9-0.7,1.6-1.5,1.8c-0.8,0.2-1.7-0.1-2.1-0.9c-0.1-0.2-0.2-0.3-0.5-0.3
		c-0.4,0-0.8,0-1.1,0c-0.4,0.9-0.8,1.8-1.2,2.8c0.3,0.2,0.6,0.6,0.9,0.9c0.1,0.1,0.3,0.1,0.4,0c1.1-0.2,2.2,0.4,2.4,1.5
		c0.2,1-0.4,2.1-1.5,2.4c-1.4,0.4-2.7-0.9-2.4-2.4c0.1-0.2,0-0.4-0.2-0.6c-0.3-0.3-0.6-0.6-0.7-0.8c-1,0.4-1.9,0.8-2.8,1.2
		c0,0.4,0,0.8,0,1.3c0,0.1,0.2,0.3,0.3,0.3c0.7,0.4,1,1.2,0.9,2c-0.2,0.8-0.7,1.4-1.5,1.6c-0.8,0.2-1.6-0.1-2.1-0.8
		c-0.7-0.9-0.5-2.3,0.5-2.9c0.2-0.1,0.3-0.3,0.3-0.5c0-0.4,0.1-0.8-0.1-1.1c-0.2-0.2-0.7-0.2-1-0.4c-0.3-0.1-0.6-0.2-0.8-0.4
		c-0.3-0.1-0.5-0.3-0.8-0.5c-0.3,0.3-0.6,0.7-0.9,1c-0.1,0.1-0.1,0.3,0,0.4c0.2,1.1-0.4,2.2-1.5,2.4c-1,0.3-2.1-0.4-2.4-1.5
		c-0.4-1.4,0.9-2.8,2.3-2.4c0.3,0.1,0.4,0,0.6-0.2c0.3-0.3,0.5-0.5,0.8-0.8c-0.6-0.8-0.9-1.6-1.1-2.5c0-0.1-0.1-0.2-0.2-0.2
		c-0.1,0-0.3,0-0.4,0c-0.5,0-0.9,0-1.3,0.5c-0.9,1.2-2.8,0.8-3.3-0.6c0-0.1-0.1-0.2-0.1-0.3c0-0.3,0-0.5,0-0.8c0,0,0,0,0-0.1
		c0.2-0.9,0.8-1.4,1.7-1.5c0.9-0.1,1.6,0.2,2.1,1c0.1,0.1,0.2,0.2,0.3,0.2c0.4,0,0.7,0,1.1,0c0.1,0,0.3-0.1,0.3-0.2
		c0.2-0.9,0.5-1.7,1.1-2.5c-0.3-0.3-0.6-0.6-0.9-0.9c-0.2-0.2-0.3-0.2-0.5-0.2c-0.3,0.1-0.6,0.1-0.9,0c-1.1-0.2-1.8-1.3-1.5-2.4
		C3.8,10.1,4.9,9.4,6,9.6c1.1,0.2,1.8,1.3,1.6,2.4c0,0.1,0,0.3,0,0.4c0.3,0.4,0.6,0.7,1,1.1c0.8-0.6,1.6-0.9,2.4-1.1
		c0.2,0,0.3-0.1,0.3-0.3c0-0.3,0-0.6,0-0.9c0-0.3-0.1-0.4-0.3-0.5c-0.8-0.5-1.1-1.4-0.8-2.3c0.2-0.8,0.8-1.2,1.5-1.4
		C11.9,6.9,12.1,6.9,12.4,6.9z M12,22.1c2.3,0,4.1-1.8,4.1-4.1c0-2.3-1.8-4.2-4.1-4.2c-2.3,0-4.1,1.8-4.2,4.1
		C7.9,20.3,9.7,22.1,12,22.1z M12.5,9c0-0.1,0-0.1,0-0.2c-0.2-0.1-0.3-0.3-0.5-0.3c-0.3,0-0.4,0.2-0.4,0.4c0,0.2,0.2,0.4,0.4,0.4
		C12.1,9.3,12.3,9.1,12.5,9z M2.8,18.4c0.1,0,0.1,0,0.2,0c0.1-0.1,0.3-0.3,0.3-0.4c0-0.1-0.2-0.4-0.3-0.4c-0.2-0.1-0.4,0.1-0.4,0.3
		C2.5,18.1,2.7,18.3,2.8,18.4z M21,18.5c0.1,0,0.1,0,0.2,0c0.1-0.2,0.3-0.3,0.3-0.5c0-0.1-0.2-0.3-0.4-0.4c-0.2-0.1-0.4,0.1-0.4,0.4
		C20.7,18.2,20.9,18.3,21,18.5z M11.9,27.5c0.1,0,0.1,0,0.2,0c0.1-0.2,0.3-0.3,0.3-0.5c0-0.2-0.2-0.4-0.4-0.4
		c-0.2,0-0.4,0.2-0.4,0.4C11.6,27.2,11.8,27.4,11.9,27.5z M6,11.7c0-0.1,0-0.1,0-0.2c-0.1-0.1-0.3-0.3-0.4-0.3
		c-0.2-0.1-0.4,0.1-0.4,0.4c0,0.2,0.2,0.4,0.3,0.4C5.7,12,5.9,11.8,6,11.7z M18.9,11.7c0-0.1,0-0.1,0-0.2c-0.2-0.1-0.3-0.3-0.5-0.3
		c-0.1,0-0.3,0.2-0.4,0.4C18,11.8,18.2,12,18.4,12C18.6,11.9,18.7,11.8,18.9,11.7z M5.7,24c-0.1,0-0.1,0-0.2,0
		c-0.1,0.2-0.3,0.3-0.3,0.5c0,0.1,0.2,0.3,0.4,0.4C5.8,24.9,6,24.7,6,24.4C5.9,24.3,5.8,24.1,5.7,24z M18.9,24.6c0-0.1,0-0.1,0-0.2
		c-0.1-0.1-0.3-0.3-0.4-0.3c-0.1,0-0.4,0.2-0.4,0.3c-0.1,0.2,0.1,0.4,0.3,0.4C18.5,24.8,18.7,24.6,18.9,24.6z"/>
	<path class="st0" d="M12,20.5c-1.4,0-2.5-1.2-2.5-2.6c0-1.4,1.2-2.5,2.6-2.5c1.4,0,2.5,1.2,2.5,2.6C14.5,19.4,13.4,20.6,12,20.5z
		 M12,19c0.5,0,1-0.4,1-0.9c0-0.5-0.4-1-0.9-1c-0.5,0-1,0.4-1,0.9C11,18.5,11.4,18.9,12,19z"/>
</g>
</svg>
