<?xml version="1.0" encoding="utf-8"?>
<!-- Generator: Adobe Illustrator 23.0.1, SVG Export Plug-In . SVG Version: 6.00 Build 0)  -->
<svg version="1.1" id="Layer_1" xmlns="http://www.w3.org/2000/svg" xmlns:xlink="http://www.w3.org/1999/xlink" x="0px" y="0px"
	 viewBox="0 0 26 26" style="enable-background:new 0 0 26 26;" xml:space="preserve">
<style type="text/css">
	.st0{fill:#FFFFFF;}
</style>
<path class="st0" d="M11.1,3.6c0,0.4,0,0.7,0,1.1c-0.2,0-0.3,0-0.5,0c-0.5,0-1.1,0-1.6,0C8.8,4.7,8.7,4.8,8.7,5
	c-0.8,2-1.7,3.9-2.5,5.9c-0.5,1.2-1,2.5-1.6,3.7c0,0.1,0,0.1-0.1,0.2c0.1,0,0.2,0,0.3,0c1.5,0,3.1,0,4.6,0c0.2,0,0.3,0,0.4,0.2
	c0.3,0.5,0.7,1,1.1,1.6c0.1,0.1,0.1,0.1,0.3,0.1c1.3,0,2.5,0,3.8,0c0.1,0,0.2-0.1,0.2-0.1c0.4-0.5,0.7-1,1.1-1.6
	c0.1-0.1,0.2-0.2,0.3-0.2c1.5,0,3.1,0,4.6,0c0.1,0,0.2,0,0.3,0c-0.1-0.2-0.2-0.4-0.2-0.6c-1.3-3.1-2.6-6.1-3.9-9.2
	c-0.1-0.2-0.2-0.2-0.4-0.2c-0.6,0-1.2,0-1.9,0c-0.1,0-0.1,0-0.2,0c0-0.4,0-0.8,0-1.1c0.1,0,0.1,0,0.2,0c1,0,2.1,0,3.1,0
	c0.1,0,0.2,0,0.3,0.2c1.5,3.6,2.9,7.1,4.4,10.6C23,14.7,23,15,23,15.3c0,2.3,0,4.7,0,7c0,0.2-0.1,0.3-0.3,0.3c-6.5,0-13,0-19.5,0
	c-0.2,0-0.2,0-0.2-0.2c0-2.4,0-4.9,0-7.3c0-0.1,0-0.2,0.1-0.3C4,12.4,5,10.1,5.9,7.8C6.5,6.5,7,5.1,7.6,3.8c0-0.1,0.1-0.1,0.2-0.1
	C8.9,3.6,9.9,3.6,11.1,3.6C11,3.6,11.1,3.6,11.1,3.6z"/>
<path class="st0" d="M14.3,10.6c0.8,0,1.5,0,2.4,0c-1.2,1.4-2.4,2.8-3.6,4.1c-1.2-1.4-2.4-2.7-3.6-4.1c0.8,0,1.6,0,2.4,0
	c0-0.1,0-0.2,0-0.3c0-2.6,0-5.2,0-7.8c0-0.3,0-0.3,0.3-0.3c0.7,0,1.5,0,2.3,0C14.3,5.1,14.3,7.9,14.3,10.6z"/>
</svg>
