<?xml version="1.0" encoding="utf-8"?>
<!-- Generator: Adobe Illustrator 23.0.1, SVG Export Plug-In . SVG Version: 6.00 Build 0)  -->
<svg version="1.1" id="ic_send" xmlns="http://www.w3.org/2000/svg" xmlns:xlink="http://www.w3.org/1999/xlink" x="0px" y="0px"
	 viewBox="0 0 26 26" style="enable-background:new 0 0 26 26;" xml:space="preserve">
<style type="text/css">
	.st0{fill:none;}
	.st1{fill:#848374;}
</style>
<path id="Rectangle_4395" class="st0" d="M0,0h26v26H0V0z"/>
<g>
	<path class="st1" d="M1.9,3.3C2.5,3.5,3,3.7,3.5,4c6.9,3,13.9,6,20.8,8.9c0.1,0,0.1,0.1,0.2,0.1c-0.1,0.1-0.2,0.1-0.3,0.1
		C17,16.3,9.6,19.5,2.2,22.6c-0.1,0-0.2,0.1-0.2,0.1c0-2.5,0-5,0-7.5C3,15,4.1,14.9,5.1,14.7C7.1,14.5,9,14.2,11,14
		c2-0.3,3.9-0.5,5.9-0.8c0.4,0,0.7-0.1,1.1-0.2c-0.1,0-0.1-0.1-0.1-0.1c-1.1-0.2-2.3-0.3-3.4-0.5c-1.7-0.2-3.4-0.5-5.1-0.7
		c-1.7-0.2-3.5-0.5-5.2-0.7c-0.7-0.1-1.5-0.2-2.2-0.3C1.9,8.3,1.9,5.8,1.9,3.3z"/>
</g>
</svg>
