<?xml version="1.0" encoding="utf-8"?>
<!-- Generator: Adobe Illustrator 23.0.1, SVG Export Plug-In . SVG Version: 6.00 Build 0)  -->
<svg version="1.1" id="ic-transaction-received" xmlns="http://www.w3.org/2000/svg" xmlns:xlink="http://www.w3.org/1999/xlink"
	 x="0px" y="0px" viewBox="0 0 24 24" style="enable-background:new 0 0 24 24;" xml:space="preserve">
<style type="text/css">
	.st0{fill:none;}
	.st1{fill:#B6B6B6;}
</style>
<path id="Rectangle_4413" class="st0" d="M0,0h24v24H0V0z"/>
<path class="st1" d="M10.1,2.9c0,0.4,0,0.7,0,1.1C9.9,4,9.8,4,9.6,4C9.1,4,8.5,4,8,4C7.8,4,7.7,4.1,7.6,4.2c-0.8,2-1.7,3.9-2.5,5.9
	c-0.5,1.2-1,2.5-1.6,3.7c0,0.1,0,0.1-0.1,0.2c0.1,0,0.2,0,0.3,0c1.5,0,3.1,0,4.6,0c0.2,0,0.3,0,0.4,0.2c0.3,0.5,0.7,1,1.1,1.6
	c0.1,0.1,0.1,0.1,0.3,0.1c1.3,0,2.5,0,3.8,0c0.1,0,0.2-0.1,0.2-0.1c0.4-0.5,0.7-1,1.1-1.6c0.1-0.1,0.2-0.2,0.3-0.2
	c1.5,0,3.1,0,4.6,0c0.1,0,0.2,0,0.3,0c-0.1-0.2-0.2-0.4-0.2-0.6c-1.3-3.1-2.6-6.1-3.9-9.2C16.2,4,16.1,4,15.9,4c-0.6,0-1.2,0-1.9,0
	c-0.1,0-0.1,0-0.2,0c0-0.4,0-0.8,0-1.1c0.1,0,0.1,0,0.2,0c1,0,2.1,0,3.1,0c0.1,0,0.2,0,0.3,0.2c1.5,3.6,2.9,7.1,4.4,10.6
	C22,14,22,14.2,22,14.6c0,2.3,0,4.7,0,7c0,0.2-0.1,0.3-0.3,0.3c-6.5,0-13,0-19.5,0C2,21.8,2,21.8,2,21.6c0-2.4,0-4.9,0-7.3
	c0-0.1,0-0.2,0.1-0.3C3,11.6,4,9.4,4.9,7.1C5.5,5.7,6,4.4,6.6,3c0-0.1,0.1-0.1,0.2-0.1C7.9,2.9,8.9,2.9,10.1,2.9
	C10,2.9,10.1,2.9,10.1,2.9z"/>
<path class="st1" d="M13.3,9.9c0.8,0,1.5,0,2.4,0c-1.2,1.4-2.4,2.8-3.6,4.1c-1.2-1.4-2.4-2.7-3.6-4.1c0.8,0,1.6,0,2.4,0
	c0-0.1,0-0.2,0-0.3c0-2.6,0-5.2,0-7.8c-0.2-0.2-0.2-0.2,0.1-0.2c0.7,0,1.5,0,2.3,0C13.3,4.4,13.3,7.1,13.3,9.9z"/>
</svg>
