<?xml version="1.0" encoding="utf-8"?>
<!-- Generator: Adobe Illustrator 23.0.1, SVG Export Plug-In . SVG Version: 6.00 Build 0)  -->
<svg version="1.1" id="ic-transaction-staked" xmlns="http://www.w3.org/2000/svg" xmlns:xlink="http://www.w3.org/1999/xlink"
	 x="0px" y="0px" viewBox="0 0 24 24" style="enable-background:new 0 0 24 24;" xml:space="preserve">
<style type="text/css">
	.st0{fill:#B6B6B6;}
</style>
<path class="st0" d="M15.5,9.9l-1.1-0.6l1-0.2c0.2,0,0.3-0.2,0.2-0.4c0-0.2-0.2-0.3-0.4-0.2l-1.6,0.4l-1.1-0.6l1.1-0.6l1.6,0.4h0.1
	c0.1,0,0.3-0.1,0.3-0.2c0-0.2-0.1-0.3-0.2-0.4l-1-0.2l1.1-0.6c0.2-0.1,0.2-0.3,0.1-0.4c-0.1-0.1-0.3-0.2-0.4-0.1l-1.1,0.6l0.3-0.9
	c0-0.2-0.1-0.3-0.2-0.4c-0.2,0-0.4,0.1-0.4,0.2l-0.4,1.5l-1.1,0.6V6.6l1.2-1.1c0.1-0.1,0.1-0.3,0-0.4C13.4,5,13.2,5,13,5.1l-0.7,0.7
	V4.6c0-0.2-0.1-0.3-0.3-0.3s-0.3,0.1-0.3,0.3v1.2L10.9,5c-0.1-0.1-0.3-0.1-0.5,0c-0.1,0.1-0.1,0.3,0,0.4l1.2,1.1v1.2l-1.1-0.6
	l-0.4-1.5c0-0.2-0.2-0.3-0.4-0.2c-0.2,0-0.3,0.2-0.2,0.4l0.3,0.9L8.7,6.1C8.5,6,8.3,6.1,8.3,6.2c-0.1,0.1,0,0.3,0.1,0.4l1.1,0.6
	l-1,0.2c-0.2,0-0.3,0.2-0.2,0.4C8.3,7.9,8.5,8,8.6,8h0.1l1.6-0.4l1.1,0.6l-1.1,0.6L8.7,8.4c-0.2,0-0.4,0.1-0.4,0.2
	c0,0.2,0.1,0.3,0.2,0.4l1,0.2L8.4,9.8c-0.2,0.1-0.2,0.3-0.1,0.4c0.1,0.1,0.2,0.2,0.3,0.2s0.1,0,0.2,0l1-0.6l-0.3,1
	c0,0.2,0.1,0.3,0.2,0.4h0.1c0.1,0,0.3-0.1,0.3-0.2l0.4-1.5l1.1-0.6v1.2l-1.2,1.1c-0.1,0.1-0.1,0.3,0,0.4s0.3,0.1,0.5,0l0.7-0.7v1.2
	c0,0.2,0.1,0.3,0.3,0.3s0.3-0.1,0.3-0.3v-1.2l0.7,0.7c0.1,0.1,0.1,0.1,0.2,0.1c0.1,0,0.2,0,0.2-0.1c0.1-0.1,0.1-0.3,0-0.4l-1.2-1.1
	V8.8l1.1,0.6l0.4,1.5c0,0.1,0.2,0.2,0.3,0.2H14c0.2,0,0.3-0.2,0.2-0.4V9.8l1.1,0.6c0.1,0,0.1,0,0.2,0c0.1,0,0.2-0.1,0.3-0.2
	C15.8,10.2,15.7,10,15.5,9.9z"/>
<g>
	<path class="st0" d="M9.9,16.3c0-0.6,0-1.2,0-1.7c0-0.1-0.1-0.1-0.1-0.2c-0.8-0.4-1.5-0.9-2.1-1.6c-0.1-0.1-0.2-0.1-0.3-0.1
		C4.7,12.4,2.7,10.6,2.2,8C2.1,7.6,2.1,7.3,2.1,6.9c0-0.6,0-1.3,0-1.9c0-0.5,0.3-0.8,0.8-0.8c1.1,0,2.1,0,3.2,0c0.1,0,0.2,0,0.3,0
		c0-0.2,0-0.4,0-0.7c0-0.5,0.3-0.8,0.8-0.8c3.3,0,6.5,0,9.8,0c0.5,0,0.8,0.3,0.8,0.8c0,0.2,0,0.4,0,0.6c0.1,0,0.2,0,0.2,0
		c1.1,0,2.1,0,3.2,0c0.5,0,0.8,0.3,0.8,0.8c0,0.8,0,1.7,0,2.5c-0.2,2.5-2.3,4.7-4.8,5.1c-0.4,0.1-0.8,0.2-1.1,0.5
		c-0.5,0.5-1.1,0.9-1.7,1.2c-0.1,0.1-0.2,0.1-0.2,0.3c0,0.5,0,1.1,0,1.6c0.2,0,0.4,0,0.6,0c1.3,0,2.2,0.9,2.2,2.2c0,0.7,0,1.3,0,2
		c0,0.5-0.3,0.8-0.8,0.8c-2.8,0-5.6,0-8.3,0c-0.5,0-0.8-0.3-0.8-0.8c0-0.7,0-1.3,0-2c0-1.2,0.9-2.2,2.2-2.2
		C9.4,16.3,9.6,16.3,9.9,16.3z M16.3,4.2c-2.9,0-5.7,0-8.5,0c0,0.1,0,0.1,0,0.1c0,1.6,0,3.3,0,4.9c0,0.3,0,0.6,0.1,0.9
		c0.4,1.5,1.4,2.5,2.8,3.1c0.5,0.2,0.6,0.4,0.6,0.9c0,0.5,0,0.9,0,1.4c0,0.3,0,0.5,0,0.8c0.5,0,0.9,0,1.4,0c0-0.7,0-1.4,0-2.2
		c0-0.5,0.1-0.7,0.6-0.9c1.8-0.6,2.9-2.2,2.9-4.1c0-1.4,0-2.9,0-4.3C16.3,4.6,16.3,4.4,16.3,4.2z M15.5,19.8c0-0.5,0-1,0-1.5
		c0-0.4-0.3-0.6-0.7-0.6c-1.9,0-3.8,0-5.7,0c-0.4,0-0.7,0.3-0.7,0.7c0,0.3,0,0.5,0,0.8c0,0.2,0,0.4,0,0.7
		C10.8,19.8,13.2,19.8,15.5,19.8z M3.5,5.6c0,0.5,0,0.9,0,1.3c0,1.8,1.2,3.5,2.9,4.1c0.1,0,0.2,0,0.3,0.1c-0.3-0.8-0.4-1.7-0.3-2.5
		c0-0.9,0-1.8,0-2.7c0-0.1,0-0.2,0-0.2C5.4,5.6,4.4,5.6,3.5,5.6z M17.7,5.6c0,0.1,0,0.2,0,0.3c0,1.1,0,2.2,0,3.2
		c0,0.5-0.1,1-0.2,1.5c0,0.2-0.1,0.3-0.1,0.5c0,0,0,0,0,0.1c0.3-0.2,0.7-0.3,1-0.5c1.6-1,2.4-3,2-5C19.6,5.6,18.6,5.6,17.7,5.6z"/>
</g>
</svg>
