<?xml version="1.0" encoding="utf-8"?>
<!-- Generator: Adobe Illustrator 23.0.1, SVG Export Plug-In . SVG Version: 6.00 Build 0)  -->
<svg version="1.1" id="ic-transaction-sent" xmlns="http://www.w3.org/2000/svg" xmlns:xlink="http://www.w3.org/1999/xlink"
	 x="0px" y="0px" viewBox="0 0 24 24" style="enable-background:new 0 0 24 24;" xml:space="preserve">
<style type="text/css">
	.st0{fill:none;}
	.st1{fill:#B6B6B6;}
</style>
<path id="Rectangle_4412" class="st0" d="M0,0h24v24H0V0z"/>
<g>
	<path class="st1" d="M0.6,2.3C1.2,2.5,1.7,2.7,2.3,3c6.9,3,13.9,6,20.8,8.9c0.1,0,0.1,0.1,0.2,0.1c-0.1,0.1-0.2,0.1-0.3,0.1
		c-7.3,3.2-14.7,6.4-22.1,9.5c-0.1,0-0.2,0.1-0.2,0.1c0-2.5,0-5,0-7.5c1-0.2,2.1-0.3,3.2-0.5c1.9-0.2,3.8-0.5,5.8-0.7
		c2-0.3,3.9-0.5,5.9-0.8c0.4,0,0.7-0.1,1.1-0.2c-0.1,0-0.1-0.1-0.1-0.1c-1.1-0.2-2.3-0.3-3.4-0.5c-1.7-0.2-3.4-0.5-5.1-0.7
		S4.6,10.2,2.9,10c-0.8,0-1.5-0.1-2.3-0.2C0.6,7.3,0.6,4.8,0.6,2.3z"/>
</g>
</svg>
