<?xml version="1.0" encoding="utf-8"?>
<!-- Generator: Adobe Illustrator 23.0.1, SVG Export Plug-In . SVG Version: 6.00 Build 0)  -->
<svg version="1.1" id="ic-transaction-staked" xmlns="http://www.w3.org/2000/svg" xmlns:xlink="http://www.w3.org/1999/xlink"
	 x="0px" y="0px" viewBox="0 0 24 24" style="enable-background:new 0 0 24 24;" xml:space="preserve">
<style type="text/css">
	.st0{fill:none;}
	.st1{fill:#B6B6B6;}
</style>
<g>
	<path class="st0" d="M18.3,13L18.3,13L18.3,13z"/>
</g>
<path class="st0" d="M10.2,5.8l-0.6-1C9.5,4.5,9.2,4.2,8.9,4.1C8.8,4.1,8.6,4,8.5,4C8.3,4,8.1,4,8,4.1C7.3,4.5,7,5.2,7.3,5.8H10.2z"
	/>
<path class="st0" d="M16.9,4.9c-0.1-0.3-0.4-0.6-0.7-0.7C16,4.1,15.6,4,15.3,4.1s-0.6,0.3-0.8,0.6l-0.6,1h2.9
	C17,5.5,17,5.2,16.9,4.9z"/>
<rect x="5.9" y="10.1" class="st0" width="12.3" height="9.6"/>
<rect x="3.6" y="7.1" class="st0" width="17" height="1.6"/>
<g>
	<path class="st1" d="M18.3,13.9L18.3,13.9L18.3,13.9z"/>
</g>
<path class="st1" d="M13.1,8.2c-0.6-0.7-1.3-1.3-1.7-1.5c-0.3-0.2-0.3,0-0.3,0.1c0.1,0.3,0.2,1-0.7,2.1c-1.1,1.5-0.3,2.6,0.5,3.1
	c0.3,0.3,0.8,0.2,0.8,0.2c0.1,0,0.2,0,0.2-0.1c-0.5-0.3-1.5-1.1-0.1-3.2c0,0-0.1,0.8,0.3,1.1c0.2,0.1,0.5-0.3,0.5-0.3
	s0.7,1.5-0.3,2.2c-0.1,0-0.1,0.1-0.2,0.1c0.1,0.1,0.2,0.1,0.2,0.1c0.5,0,1.1-0.3,1.5-1.1C14.4,10,13.9,8.9,13.1,8.2z"/>
<g>
	<path class="st1" d="M9.9,17.3c0-0.6,0-1.2,0-1.7c0-0.1-0.1-0.1-0.1-0.2c-0.8-0.4-1.5-0.9-2.1-1.6c-0.1-0.1-0.2-0.1-0.3-0.1
		C4.7,13.4,2.7,11.6,2.2,9C2.1,8.6,2.1,8.3,2.1,7.9c0-0.6,0-1.3,0-1.9c0-0.5,0.3-0.8,0.8-0.8c1.1,0,2.1,0,3.2,0c0.1,0,0.2,0,0.3,0
		c0-0.2,0-0.4,0-0.7c0-0.5,0.3-0.8,0.8-0.8c3.3,0,6.5,0,9.8,0c0.5,0,0.8,0.3,0.8,0.8c0,0.2,0,0.4,0,0.6c0.1,0,0.2,0,0.2,0
		c1.1,0,2.1,0,3.2,0c0.5,0,0.8,0.3,0.8,0.8c0,0.8,0,1.7,0,2.5c-0.2,2.5-2.3,4.7-4.8,5.1c-0.4,0.1-0.8,0.2-1.1,0.5
		c-0.5,0.5-1.1,0.9-1.7,1.2c-0.1,0.1-0.2,0.1-0.2,0.3c0,0.5,0,1.1,0,1.6c0.2,0,0.4,0,0.6,0c1.3,0,2.2,0.9,2.2,2.2c0,0.7,0,1.3,0,2
		c0,0.5-0.3,0.8-0.8,0.8c-2.8,0-5.6,0-8.3,0c-0.5,0-0.8-0.3-0.8-0.8c0-0.7,0-1.3,0-2c0-1.2,0.9-2.2,2.2-2.2
		C9.4,17.3,9.6,17.3,9.9,17.3z M16.3,5.2c-2.9,0-5.7,0-8.5,0c0,0.1,0,0.1,0,0.1c0,1.6,0,3.3,0,4.9c0,0.3,0,0.6,0.1,0.9
		c0.4,1.5,1.4,2.5,2.8,3.1c0.5,0.2,0.6,0.4,0.6,0.9c0,0.5,0,0.9,0,1.4c0,0.3,0,0.5,0,0.8c0.5,0,0.9,0,1.4,0c0-0.7,0-1.4,0-2.2
		c0-0.5,0.1-0.7,0.6-0.9c1.8-0.6,2.9-2.2,2.9-4.1c0-1.4,0-2.9,0-4.3C16.3,5.6,16.3,5.4,16.3,5.2z M15.5,20.8c0-0.5,0-1,0-1.5
		c0-0.4-0.3-0.6-0.7-0.6c-1.9,0-3.8,0-5.7,0c-0.4,0-0.7,0.3-0.7,0.7c0,0.3,0,0.5,0,0.8c0,0.2,0,0.4,0,0.7
		C10.8,20.8,13.2,20.8,15.5,20.8z M3.5,6.6c0,0.5,0,0.9,0,1.3c0,1.8,1.2,3.5,2.9,4.1c0.1,0,0.2,0,0.3,0.1c-0.3-0.8-0.4-1.7-0.3-2.5
		c0-0.9,0-1.8,0-2.7c0-0.1,0-0.2,0-0.2C5.4,6.6,4.4,6.6,3.5,6.6z M17.7,6.6c0,0.1,0,0.2,0,0.3c0,1.1,0,2.2,0,3.2
		c0,0.5-0.1,1-0.2,1.5c0,0.2-0.1,0.3-0.1,0.5c0,0,0,0,0,0.1c0.3-0.2,0.7-0.3,1-0.5c1.6-1,2.4-3,2-5C19.6,6.6,18.6,6.6,17.7,6.6z"/>
</g>
</svg>
