<?xml version="1.0" encoding="utf-8"?>
<!-- Generator: Adobe Illustrator 23.0.1, SVG Export Plug-In . SVG Version: 6.00 Build 0)  -->
<svg version="1.1" id="ic-transaction-sent" xmlns="http://www.w3.org/2000/svg" xmlns:xlink="http://www.w3.org/1999/xlink"
	 x="0px" y="0px" viewBox="0 0 24 24" style="enable-background:new 0 0 24 24;" xml:space="preserve">
<style type="text/css">
	.st0{fill:none;}
	.st1{fill:#707070;}
</style>
<path id="Rectangle_4412" class="st0" d="M0,0h24v24H0V0z"/>
<g>
	<path class="st1" d="M0.9,2.3C1.5,2.5,2,2.7,2.6,3c6.9,3,13.9,6,20.8,8.9c0.1,0,0.1,0.1,0.2,0.1c-0.1,0.1-0.2,0.1-0.3,0.1
		C16,15.3,8.6,18.5,1.2,21.6c-0.1,0-0.2,0.1-0.2,0.1c0-2.5,0-5,0-7.5C2,14,3.1,13.9,4.2,13.7C6.1,13.5,8,13.2,10,13
		c2-0.3,3.9-0.5,5.9-0.8c0.4,0,0.7-0.1,1.1-0.2c-0.1,0-0.1-0.1-0.1-0.1c-1.1-0.2-2.3-0.3-3.4-0.5c-1.7-0.2-3.4-0.5-5.1-0.7
		c-1.7-0.2-3.5-0.5-5.2-0.7C2.4,10,1.7,9.9,0.9,9.8C0.9,7.3,0.9,4.8,0.9,2.3z"/>
</g>
</svg>
