<?xml version="1.0" encoding="utf-8"?>
<!-- Generator: Adobe Illustrator 23.0.1, SVG Export Plug-In . SVG Version: 6.00 Build 0)  -->
<svg version="1.1" id="ic-transaction-staked" xmlns="http://www.w3.org/2000/svg" xmlns:xlink="http://www.w3.org/1999/xlink"
	 x="0px" y="0px" viewBox="0 0 24 24" style="enable-background:new 0 0 24 24;" xml:space="preserve">
<style type="text/css">
	.st0{fill:none;}
	.st1{fill:#707070;}
</style>
<g>
	<path class="st0" d="M18.3,13L18.3,13L18.3,13z"/>
</g>
<path class="st0" d="M10.2,5.8l-0.6-1C9.5,4.5,9.2,4.2,8.9,4.1C8.8,4.1,8.6,4,8.5,4C8.3,4,8.1,4,8,4.1C7.3,4.5,7,5.2,7.3,5.8H10.2z"
	/>
<path class="st0" d="M16.9,4.9c-0.1-0.3-0.4-0.6-0.7-0.7C16,4.1,15.6,4,15.3,4.1s-0.6,0.3-0.8,0.6l-0.6,1h2.9
	C17,5.5,17,5.2,16.9,4.9z"/>
<rect x="5.9" y="10.1" class="st0" width="12.3" height="9.6"/>
<rect x="3.6" y="7.1" class="st0" width="17" height="1.6"/>
<path class="st1" d="M15.6,9.9l-1.1-0.6l1-0.2c0.2,0,0.3-0.2,0.2-0.4c0-0.2-0.2-0.3-0.4-0.2l-1.6,0.4l-1.1-0.6l1.1-0.6l1.6,0.4h0.1
	c0.1,0,0.3-0.1,0.3-0.2c0-0.2-0.1-0.3-0.2-0.4l-1-0.2l1.1-0.6c0.2-0.1,0.2-0.3,0.1-0.4c-0.1-0.1-0.3-0.2-0.4-0.1l-1.1,0.6l0.3-0.9
	c0-0.2-0.1-0.3-0.2-0.4c-0.2,0-0.4,0.1-0.4,0.2l-0.4,1.5l-1.1,0.6V6.6l1.2-1.1c0.1-0.1,0.1-0.3,0-0.4c-0.1-0.1-0.3-0.1-0.5,0
	l-0.7,0.7V4.6c0-0.2-0.1-0.3-0.3-0.3s-0.3,0.1-0.3,0.3v1.2L11,5c-0.1-0.1-0.3-0.1-0.5,0c-0.1,0.1-0.1,0.3,0,0.4l1.2,1.1v1.2
	l-1.1-0.6l-0.4-1.5c0-0.2-0.2-0.3-0.4-0.2c-0.2,0-0.3,0.2-0.2,0.4l0.3,0.9L8.8,6.1C8.6,6,8.4,6.1,8.4,6.2c-0.1,0.1,0,0.3,0.1,0.4
	l1.1,0.6l-1,0.2c-0.2,0-0.3,0.2-0.2,0.4C8.4,7.9,8.6,8,8.7,8h0.1l1.6-0.4l1.1,0.6l-1.1,0.6L8.8,8.4c-0.2,0-0.4,0.1-0.4,0.2
	c0,0.2,0.1,0.3,0.2,0.4l1,0.2L8.5,9.8c-0.2,0.1-0.2,0.3-0.1,0.4c0.1,0.1,0.2,0.2,0.3,0.2s0.1,0,0.2,0l1-0.6l-0.3,1
	c0,0.2,0.1,0.3,0.2,0.4h0.1c0.1,0,0.3-0.1,0.3-0.2l0.4-1.5l1.1-0.6v1.2l-1.2,1.1c-0.1,0.1-0.1,0.3,0,0.4s0.3,0.1,0.5,0l0.7-0.7v1.2
	c0,0.2,0.1,0.3,0.3,0.3s0.3-0.1,0.3-0.3v-1.2l0.7,0.7c0.1,0.1,0.1,0.1,0.2,0.1c0.1,0,0.2,0,0.2-0.1c0.1-0.1,0.1-0.3,0-0.4l-1.2-1.1
	V8.8l1.1,0.6l0.4,1.5c0,0.1,0.2,0.2,0.3,0.2h0.1c0.2,0,0.3-0.2,0.2-0.4V9.8l1.1,0.6c0.1,0,0.1,0,0.2,0c0.1,0,0.2-0.1,0.3-0.2
	C15.9,10.2,15.8,10,15.6,9.9z"/>
<g>
	<path class="st1" d="M10,16.3c0-0.6,0-1.2,0-1.7c0-0.1-0.1-0.1-0.1-0.2C9,14,8.3,13.5,7.7,12.8c-0.1-0.1-0.2-0.1-0.3-0.1
		C4.8,12.4,2.8,10.6,2.3,8C2.2,7.6,2.2,7.3,2.2,6.9c0-0.6,0-1.3,0-1.9c0-0.5,0.3-0.8,0.8-0.8c1.1,0,2.1,0,3.2,0c0.1,0,0.2,0,0.3,0
		c0-0.2,0-0.4,0-0.7c0-0.5,0.3-0.8,0.8-0.8c3.3,0,6.5,0,9.8,0c0.5,0,0.8,0.3,0.8,0.8c0,0.2,0,0.4,0,0.6c0.1,0,0.2,0,0.2,0
		c1.1,0,2.1,0,3.2,0C21.8,4.2,22,4.5,22,5c0,0.8,0,1.7,0,2.5c-0.2,2.5-2.3,4.7-4.8,5.1c-0.4,0.1-0.8,0.2-1.1,0.5
		c-0.5,0.5-1.1,0.9-1.7,1.2c-0.1,0.1-0.2,0.1-0.2,0.3c0,0.5,0,1.1,0,1.6c0.2,0,0.4,0,0.6,0c1.3,0,2.2,0.9,2.2,2.2c0,0.7,0,1.3,0,2
		c0,0.5-0.3,0.8-0.8,0.8c-2.8,0-5.6,0-8.3,0c-0.5,0-0.8-0.3-0.8-0.8c0-0.7,0-1.3,0-2c0-1.2,0.9-2.2,2.2-2.2
		C9.5,16.3,9.7,16.3,10,16.3z M16.4,4.2c-2.9,0-5.7,0-8.5,0c0,0.1,0,0.1,0,0.1c0,1.6,0,3.3,0,4.9c0,0.3,0,0.6,0.1,0.9
		c0.4,1.5,1.4,2.5,2.8,3.1c0.5,0.2,0.6,0.4,0.6,0.9c0,0.5,0,0.9,0,1.4c0,0.3,0,0.5,0,0.8c0.5,0,0.9,0,1.4,0c0-0.7,0-1.4,0-2.2
		c0-0.5,0.1-0.7,0.6-0.9c1.8-0.6,2.9-2.2,2.9-4.1c0-1.4,0-2.9,0-4.3C16.4,4.6,16.4,4.4,16.4,4.2z M15.6,19.8c0-0.5,0-1,0-1.5
		c0-0.4-0.3-0.6-0.7-0.6c-1.9,0-3.8,0-5.7,0c-0.4,0-0.7,0.3-0.7,0.7c0,0.3,0,0.5,0,0.8c0,0.2,0,0.4,0,0.7
		C10.9,19.8,13.3,19.8,15.6,19.8z M3.6,5.6c0,0.5,0,0.9,0,1.3c0,1.8,1.2,3.5,2.9,4.1c0.1,0,0.2,0,0.3,0.1c-0.3-0.8-0.4-1.7-0.3-2.5
		c0-0.9,0-1.8,0-2.7c0-0.1,0-0.2,0-0.2C5.5,5.6,4.5,5.6,3.6,5.6z M17.8,5.6c0,0.1,0,0.2,0,0.3c0,1.1,0,2.2,0,3.2
		c0,0.5-0.1,1-0.2,1.5c0,0.2-0.1,0.3-0.1,0.5c0,0,0,0,0,0.1c0.3-0.2,0.7-0.3,1-0.5c1.6-1,2.4-3,2-5C19.7,5.6,18.7,5.6,17.8,5.6z"/>
</g>
</svg>
