<?xml version="1.0" encoding="utf-8"?>
<!-- Generator: Adobe Illustrator 23.0.1, SVG Export Plug-In . SVG Version: 6.00 Build 0)  -->
<svg version="1.1" id="Layer_1" xmlns="http://www.w3.org/2000/svg" xmlns:xlink="http://www.w3.org/1999/xlink" x="0px" y="0px"
	 viewBox="0 0 24 24" style="enable-background:new 0 0 24 24;" xml:space="preserve">
<style type="text/css">
	.st0{fill:none;}
	.st1{fill:#7C7B4C;}
</style>
<title>Artboard</title>
<desc>Created with Sketch.</desc>
<g id="Artboard">
	<g id="ic-update" transform="translate(2.000000, 2.000000)">
		<polygon id="Rectangle_4642" class="st0" points="0,0 20,0 20,20 0,20 		"/>
		<path id="Path_18962" class="st1" d="M13,8.5h5v-5h-2v1.2c-2.4-2.8-6.4-3.5-9.7-1.8s-4.9,5.4-4.1,9S6.3,18,10,18
			c2.1,0,4.2-0.8,5.7-2.3l-1.4-1.4c-1.8,1.8-4.5,2.3-6.8,1.2S3.8,12,4,9.5C4.2,7,6,4.9,8.4,4.2s5,0.2,6.5,2.3H13V8.5z"/>
	</g>
</g>
</svg>
