<?xml version="1.0" encoding="utf-8"?>
<!-- Generator: Adobe Illustrator 23.0.1, SVG Export Plug-In . SVG Version: 6.00 Build 0)  -->
<svg version="1.1" id="ic_unlock_staking" xmlns="http://www.w3.org/2000/svg" xmlns:xlink="http://www.w3.org/1999/xlink" x="0px"
	 y="0px" viewBox="0 0 24 24" style="enable-background:new 0 0 24 24;" xml:space="preserve">
<style type="text/css">
	.st0{fill:none;}
	.st1{fill:#848474;}
</style>
<g id="Group_8891">
	<path id="Rectangle_4445" class="st0" d="M0,0h24v24H0V0z"/>
</g>
<path id="Path_18910" class="st1" d="M19.4,12l1.3-1.3l-1.4-1.4L18,10.6c-1.4-1.2-3.2-2-5-2.4V7c0-2.8-2.2-5-5-5S3,4.2,3,7v1H2v10
	h7.2l2-2H4v-6h8v5.2l2-2v-2.6c0.9,0.3,1.8,0.8,2.6,1.4l-8.8,8.8l1.4,1.4l8.8-8.8c1.3,1.6,2,3.6,2,5.6v1h2v-1
	C22,16.4,21.1,13.9,19.4,12z M11,8H5V7c0-1.7,1.3-3,3-3s3,1.3,3,3V8z"/>
</svg>
