<?xml version="1.0" encoding="utf-8"?>
<!-- Generator: Adobe Illustrator 23.0.1, SVG Export Plug-In . SVG Version: 6.00 Build 0)  -->
<svg version="1.1" id="ic_empty_Dark_masternode" xmlns="http://www.w3.org/2000/svg" xmlns:xlink="http://www.w3.org/1999/xlink"
	 x="0px" y="0px" viewBox="0 0 100 100" style="enable-background:new 0 0 100 100;" xml:space="preserve">
<style type="text/css">
	.st0{fill:none;}
	.st1{fill:#A09EA5;}
</style>
<path id="Rectangle_4704" class="st0" d="M0,0h100v100H0V0z"/>
<g>
	<path class="st1" d="M51.4,9c0.7,0.3,1.4,0.5,2,0.9c5,2.6,5.3,9.7,0.5,12.7c-0.8,0.5-1.1,1.1-1.1,2c0.1,1.4-0.4,3.1,0.2,4
		c0.6,0.9,2.4,0.9,3.6,1.4c1.1,0.4,2.1,0.8,3.1,1.4c1,0.5,1.9,1.1,3.1,1.8c1.2-1.2,2.4-2.5,3.6-3.8c0.2-0.3,0.2-1,0.1-1.4
		c-0.9-4.1,1.6-8,5.7-8.9c3.9-0.9,8,1.8,8.8,5.8c1.1,5.1-3.6,9.8-8.7,8.7c-1-0.2-1.6,0-2.3,0.7c-0.9,1-2,2-3,2.9
		c1,1.9,1.9,3.6,2.7,5.4c0.4,0.9,0.8,1.9,0.9,2.8c0.1,1.5,0.8,2.1,2.2,1.8c0.2,0,0.5,0,0.7,0c1.8,0.1,3.3,0,4.6-1.9
		c1.8-2.6,5.4-3.2,8.3-2c3,1.3,4.8,4.2,4.6,7.4c-0.3,3.2-2.5,5.8-5.7,6.6c-3.1,0.8-6.2-0.5-7.9-3.3c-0.5-0.7-0.9-1-1.8-1
		c-1.5,0.1-3,0-4.1,0c-1.4,3.4-2.8,6.7-4.3,10.2c0.9,0.9,2.2,2.1,3.5,3.3c0.3,0.3,1,0.2,1.4,0.1c4.2-0.9,7.9,1.5,8.9,5.6
		c0.9,3.8-1.5,7.7-5.5,8.8c-5.2,1.4-10.1-3.4-9-8.7c0.2-0.9,0.1-1.5-0.6-2.1c-1.1-1-2.1-2.2-2.8-2.9c-3.6,1.5-6.8,2.8-10.3,4.3
		c0,1.3-0.1,3,0.1,4.7c0,0.4,0.6,1,1.1,1.3c2.5,1.7,3.8,4.6,3.2,7.5c-0.6,3.1-2.5,5.1-5.6,5.9c-2.9,0.7-5.9-0.4-7.6-2.8
		c-2.6-3.5-1.7-8.3,2-10.6c0.8-0.5,1.1-1,1.1-1.9c-0.1-1.4,0.4-3.1-0.2-4.1c-0.6-0.9-2.4-0.9-3.7-1.3c-1.1-0.4-2.1-0.9-3.1-1.4
		c-1-0.5-1.9-1.1-3.1-1.8c-1.1,1.2-2.4,2.5-3.5,3.8c-0.3,0.3-0.3,1-0.2,1.4c0.9,4.2-1.5,8-5.6,8.9c-3.8,0.9-7.7-1.5-8.8-5.4
		c-1.4-5.2,3.3-10.2,8.7-9c1,0.2,1.6,0,2.3-0.7c1-1,2-2,3.1-3c-2.1-2.9-3.4-5.9-4.1-9.2c-0.1-0.3-0.5-0.6-0.9-0.7
		c-0.5-0.1-1,0-1.5,0c-2-0.2-3.5,0.1-5,2c-3.5,4.3-10.3,2.8-12.3-2.4c-0.1-0.4-0.3-0.8-0.5-1.1c0-0.9,0-1.9,0-2.8
		c0.1-0.1,0.1-0.1,0.2-0.2c0.9-3.2,2.9-5.2,6.2-5.7c3.3-0.5,5.8,0.9,7.6,3.7c0.2,0.3,0.7,0.6,1.1,0.6c1.4,0.1,2.7,0.1,4.1,0
		c0.4,0,0.9-0.4,1-0.6c0.7-3.3,1.9-6.4,4.1-9.3c-1.2-1.1-2.3-2.1-3.3-3.1c-0.6-0.6-1.1-0.8-2-0.6c-1,0.2-2.2,0.3-3.2,0.1
		c-4-0.8-6.6-4.8-5.7-8.7c0.9-4,4.8-6.6,8.7-5.8c4.1,0.9,6.6,4.8,5.8,8.9c-0.1,0.5-0.2,1.1,0.1,1.4c1.1,1.4,2.4,2.6,3.6,3.9
		c2.9-2.1,5.8-3.4,9-4c0.8-0.1,1-0.5,1-1.3c-0.1-1.1-0.1-2.3,0-3.4c0.1-1-0.3-1.5-1.1-2c-2.9-1.8-4-5.1-3.1-8.4
		c0.9-2.8,3-4.3,5.6-5.2C49.5,9,50.5,9,51.4,9z M50,65.2c8.3,0,15.2-6.8,15.3-15.1c0-8.4-6.8-15.4-15.1-15.4
		c-8.4,0-15.3,6.8-15.3,15.2C34.7,58.4,41.6,65.2,50,65.2z M51.7,16.8c0-0.2,0-0.5,0-0.7c-0.6-0.4-1.1-1-1.7-1.1
		c-0.9-0.2-1.6,0.6-1.4,1.5c0.1,0.6,0.9,1.4,1.4,1.4C50.5,17.9,51.1,17.2,51.7,16.8z M16,51.7c0.2,0,0.5,0,0.7,0
		c0.4-0.6,1.2-1.1,1.2-1.7c0-0.5-0.7-1.3-1.3-1.5c-0.9-0.3-1.7,0.3-1.6,1.3C15.1,50.5,15.6,51.1,16,51.7z M83.3,51.7
		c0.2,0,0.5,0,0.7,0c0.4-0.6,1.1-1.2,1-1.8c0-0.5-0.8-1.2-1.4-1.4c-0.9-0.2-1.6,0.5-1.5,1.4C82.2,50.6,82.9,51.2,83.3,51.7z
		 M49.6,85.3c0.2,0,0.5,0,0.7,0c0.4-0.6,1-1.1,1.1-1.7c0.2-0.9-0.6-1.6-1.4-1.5c-0.6,0.1-1.3,0.9-1.4,1.4
		C48.5,84.1,49.2,84.7,49.6,85.3z M27.9,26.7c0-0.2,0-0.5,0.1-0.7c-0.5-0.4-1-1.1-1.7-1.2c-0.9-0.2-1.6,0.5-1.5,1.4
		c0.1,0.6,0.8,1.4,1.3,1.4C26.7,27.7,27.3,27.1,27.9,26.7z M75.5,26.6c0-0.2,0-0.5,0-0.7c-0.6-0.4-1.2-1.1-1.8-1
		c-0.5,0-1.2,0.8-1.4,1.4c-0.2,0.9,0.5,1.6,1.4,1.5C74.3,27.6,74.9,27,75.5,26.6z M26.6,72c-0.2,0-0.5,0-0.7,0
		c-0.4,0.6-1.1,1.2-1,1.7c0,0.5,0.8,1.2,1.3,1.4c0.9,0.2,1.6-0.4,1.5-1.4C27.6,73.2,27,72.6,26.6,72z M75.4,74.3
		c0-0.2,0-0.5,0.1-0.7c-0.5-0.4-1.1-1.2-1.6-1.2c-0.5,0-1.3,0.6-1.5,1.2c-0.3,0.8,0.3,1.7,1.2,1.6C74.2,75.1,74.8,74.6,75.4,74.3z"
		/>
	<path class="st1" d="M49.9,59.4c-5.3-0.1-9.4-4.3-9.3-9.5c0.1-5.2,4.3-9.4,9.5-9.3c5.2,0.1,9.4,4.3,9.3,9.5
		C59.3,55.4,55.1,59.5,49.9,59.4z M49.9,53.6c1.9,0.1,3.5-1.5,3.7-3.4c0.1-1.9-1.4-3.7-3.4-3.8c-1.9-0.1-3.6,1.5-3.7,3.5
		C46.3,51.8,47.9,53.5,49.9,53.6z"/>
</g>
</svg>
