<?xml version="1.0" encoding="utf-8"?>
<!-- Generator: Adobe Illustrator 23.0.1, SVG Export Plug-In . SVG Version: 6.00 Build 0)  -->
<svg version="1.1" id="ic_empty_masternode" xmlns="http://www.w3.org/2000/svg" xmlns:xlink="http://www.w3.org/1999/xlink"
	 x="0px" y="0px" viewBox="0 0 100 100" style="enable-background:new 0 0 100 100;" xml:space="preserve">
<style type="text/css">
	.st0{fill:none;}
	.st1{fill:#666666;}
</style>
<path id="Rectangle_4674" class="st0" d="M0,0h100v100H0V0z"/>
<g>
	<path class="st1" d="M12.7,48.7c0.8-1.3,1.4-2.9,2.6-4c3.1-2.9,8-2.1,10.3,1.5c0.5,0.8,1,1.1,1.9,1c1.3-0.1,2.9,0.4,3.8-0.2
		c0.8-0.6,0.8-2.3,1.3-3.5c0.4-1,0.8-2,1.3-2.9c0.5-0.9,1.1-1.8,1.8-2.9c-1.2-1.1-2.4-2.3-3.7-3.4c-0.3-0.2-0.9-0.2-1.4-0.1
		c-3.9,0.8-7.6-1.5-8.4-5.4c-0.8-3.7,1.6-7.4,5.4-8.3c3.7-0.9,7.5,1.5,8.3,5.3c0.2,0.9,0.2,2,0,2.9c-0.2,1-0.1,1.6,0.7,2.2
		c1,0.9,1.9,1.9,2.8,2.9c1.2-0.7,2.3-1.5,3.5-2c1.6-0.7,3.3-1.2,4.9-1.6c0.8-0.2,1.2-0.5,1.1-1.3c-0.1-0.5,0-1,0-1.5
		c0.1-1.7-0.1-3.1-1.8-4.2c-2.5-1.7-3.1-5.2-1.9-8c1.2-2.7,4-4.5,7-4.2c3,0.3,5.5,2.3,6.2,5.2c0.8,3-0.4,6-3.1,7.6
		c-0.8,0.5-1,1-1,1.8c0.1,1.4,0,2.8,0,3.8c3.2,1.3,6.3,2.6,9.6,4c0.9-0.9,2.1-2.1,3.3-3.3c0.2-0.2,0.1-0.8,0-1.2
		c-0.8-3.9,1.4-7.4,5.2-8.4c3.6-0.9,7.3,1.3,8.4,5c1.4,5-3.1,9.8-8.2,8.6c-0.9-0.2-1.5,0-2.1,0.6c-0.9,1-2,1.9-2.7,2.6
		c1.4,3.3,2.6,6.4,4,9.6c1.3,0,2.9,0.1,4.5,0c0.4,0,0.8-0.5,1.1-0.9c1.6-2.5,4.6-3.8,7.4-3.1c2.9,0.7,5.1,3.1,5.5,6
		c0.4,2.9-1.2,5.7-3.8,7.1c-3.2,1.7-7.1,0.6-9-2.5c-0.5-0.7-0.9-1-1.8-1c-1.3,0.1-3-0.4-3.9,0.2c-0.8,0.5-0.8,2.3-1.3,3.4
		c-0.8,1.9-1.8,3.8-2.8,5.9c1,1,2.2,2.2,3.5,3.3c0.3,0.3,1,0.1,1.5,0c3.2-0.6,6.4,1,7.8,3.9c1.4,3,0.5,6.5-2.1,8.5
		c-2.3,1.7-5.6,1.9-8,0.3c-2.4-1.5-3.7-4.5-3-7.3c0.2-0.9,0.1-1.5-0.6-2.1c-1-0.9-1.9-2-2.6-2.7c-2.7,1.1-5,2.3-7.5,3.1
		c-2.1,0.7-2.2,0.6-2.2,3c0,0.2,0,0.4,0,0.7c-0.2,1.5,0.2,2.5,1.6,3.5c2.2,1.5,2.9,3.9,2.5,6.5c-0.4,2.6-2,4.4-4.5,5.4
		c-0.4,0.1-0.7,0.3-1.1,0.5c-0.9,0-1.8,0-2.7,0c-0.4-0.2-0.7-0.3-1.1-0.5c-5-1.9-6.3-8.4-2.1-11.7c1.7-1.3,2-2.7,1.8-4.5
		c0-0.5,0.1-1.1,0-1.6c-0.1-0.3-0.4-0.8-0.6-0.8c-3.2-0.6-6-1.9-8.8-3.9c-1,1.1-2,2.2-3,3.1c-0.6,0.6-0.7,1-0.6,1.9
		c0.2,1,0.2,2.2,0,3.2c-0.8,3.7-4.6,6.1-8.2,5.3c-3.8-0.8-6.2-4.5-5.5-8.3c0.8-3.8,4.5-6.3,8.4-5.5c0.5,0.1,1.2,0.2,1.5-0.1
		c1.3-1.1,2.5-2.3,3.7-3.4c-2-2.7-3.2-5.5-3.8-8.5c-0.1-0.7-0.5-0.9-1.2-0.9c-1.1,0-2.2,0-3.3,0c-0.8,0-1.3,0.2-1.7,0.9
		c-1.6,2.5-3.9,3.6-6.8,3.2c-2.7-0.3-4.6-1.9-5.6-4.5c-0.1-0.4-0.3-0.7-0.5-1.1C12.7,50.4,12.7,49.5,12.7,48.7z M65.9,50
		c0-8-6.5-14.5-14.5-14.4c-7.9,0-14.4,6.6-14.4,14.5c0,8,6.6,14.4,14.6,14.3C59.5,64.4,66,57.9,65.9,50z M51.8,16.6
		c-1.2,0.3-1.7,0.8-1.7,1.7c0,0.9,0.7,1.5,1.5,1.3c0.5-0.1,1.2-0.9,1.2-1.4C52.8,17.7,52.2,17.1,51.8,16.6z M19.4,51.6
		c0.2,0,0.4,0,0.6,0c0.4-0.6,1-1.1,1-1.7c0-0.5-0.8-1.2-1.3-1.3c-0.8-0.2-1.5,0.4-1.4,1.3C18.4,50.6,19,51.1,19.4,51.6z M83,51.6
		c0.2,0,0.4,0,0.6,0c0.3-0.6,1-1.1,1-1.7c0-0.5-0.8-1.2-1.3-1.3c-0.9-0.2-1.5,0.5-1.4,1.3C82,50.6,82.6,51.1,83,51.6z M51.2,83.4
		c1.2-0.3,1.8-0.9,1.6-1.7c-0.1-0.5-0.8-1.2-1.3-1.3c-0.8-0.2-1.5,0.5-1.4,1.4C50.2,82.4,50.8,82.9,51.2,83.4z M28.7,29.1
		c0.2,0,0.4,0,0.7,0c0.3-0.6,1-1.1,1-1.7c0-0.5-0.8-1.2-1.3-1.3c-0.9-0.2-1.5,0.5-1.4,1.3C27.7,28.1,28.3,28.6,28.7,29.1z
		 M75.6,27.8c0-0.2,0-0.4,0-0.7c-0.6-0.3-1.1-1-1.7-0.9c-0.5,0-1.2,0.8-1.3,1.3c-0.2,0.9,0.5,1.5,1.3,1.4
		C74.6,28.8,75.1,28.2,75.6,27.8z M28.6,74.1c0.2,0,0.4,0,0.7,0c0.4-0.5,1-1,1.1-1.6c0.2-0.9-0.5-1.5-1.4-1.3
		c-0.5,0.1-1.3,0.8-1.3,1.3C27.6,72.9,28.3,73.5,28.6,74.1z M75.6,72.9c0-0.2,0-0.4,0-0.6c-0.5-0.4-1.1-1.1-1.6-1
		c-0.5,0-1.2,0.7-1.4,1.2c-0.2,0.8,0.4,1.5,1.3,1.4C74.5,73.8,75,73.2,75.6,72.9z"/>
	<path class="st1" d="M51.4,58.9c-5-0.1-8.9-4-8.8-9c0-4.9,4.1-8.9,9-8.8c5,0,8.9,4,8.8,9C60.4,55,56.4,59,51.4,58.9z M51.5,46.6
		c-1.8,0-3.4,1.6-3.4,3.4c0,1.8,1.6,3.4,3.4,3.4c1.8,0,3.3-1.5,3.3-3.3C54.9,48.2,53.4,46.6,51.5,46.6z"/>
</g>
</svg>
