<?xml version="1.0" encoding="utf-8"?>
<!-- Generator: Adobe Illustrator 23.0.1, SVG Export Plug-In . SVG Version: 6.00 Build 0)  -->
<svg version="1.1" id="ic-transaction-sent" xmlns="http://www.w3.org/2000/svg" xmlns:xlink="http://www.w3.org/1999/xlink"
	 x="0px" y="0px" viewBox="0 0 24 24" style="enable-background:new 0 0 24 24;" xml:space="preserve">
<style type="text/css">
	.st0{fill:none;}
	.st1{fill:#707070;}
</style>
<path id="Rectangle_4412" class="st0" d="M0,0h24v24H0V0z"/>
<g>
	<path class="st1" d="M3.7,4.2c0.4,0.2,0.8,0.3,1.3,0.5c5.4,2.3,10.8,4.6,16.2,7c0.1,0,0.1,0.1,0.2,0.1c-0.1,0-0.1,0.1-0.2,0.1
		c-5.8,2.5-11.5,4.9-17.3,7.4c-0.1,0-0.1,0-0.2,0.1c0-2,0-3.9,0-5.9c0.8-0.1,1.7-0.2,2.5-0.3c1.5-0.2,3-0.4,4.5-0.6
		c1.5-0.2,3.1-0.4,4.6-0.6c0.3,0,0.6-0.1,0.9-0.1c0,0-0.1,0-0.1,0c-0.9-0.1-1.8-0.2-2.7-0.4c-1.3-0.2-2.7-0.4-4-0.5
		c-1.3-0.2-2.7-0.4-4-0.5c-0.6-0.1-1.2-0.2-1.7-0.2C3.7,8.1,3.7,6.2,3.7,4.2z"/>
</g>
</svg>
