<?xml version="1.0" encoding="utf-8"?>
<!-- Generator: Adobe Illustrator 23.0.1, SVG Export Plug-In . SVG Version: 6.00 Build 0)  -->
<svg version="1.1" id="ic-transaction-received" xmlns="http://www.w3.org/2000/svg" xmlns:xlink="http://www.w3.org/1999/xlink"
	 x="0px" y="0px" viewBox="0 0 24 24" style="enable-background:new 0 0 24 24;" xml:space="preserve">
<style type="text/css">
	.st0{fill:none;}
	.st1{fill:#707070;}
</style>
<path id="Rectangle_4413" class="st0" d="M0,0h24v24H0V0z"/>
<path class="st1" d="M10.1,3.1c0,0.4,0,0.7,0,1.1c-0.2,0-0.3,0-0.5,0c-0.5,0-1.1,0-1.6,0c-0.2,0-0.3,0.1-0.4,0.2
	c-0.8,2-1.7,3.9-2.5,5.9c-0.5,1.2-1,2.5-1.6,3.7c0,0.1,0,0.1-0.1,0.2c0.1,0,0.2,0,0.3,0c1.5,0,3.1,0,4.6,0c0.2,0,0.3,0,0.4,0.2
	c0.3,0.5,0.7,1,1.1,1.6c0.1,0.1,0.1,0.1,0.3,0.1c1.3,0,2.5,0,3.8,0c0.1,0,0.2-0.1,0.2-0.1c0.4-0.5,0.7-1,1.1-1.6
	c0.1-0.1,0.2-0.2,0.3-0.2c1.5,0,3.1,0,4.6,0c0.1,0,0.2,0,0.3,0c-0.1-0.2-0.2-0.4-0.2-0.6c-1.3-3.1-2.6-6.1-3.9-9.2
	c-0.1-0.2-0.2-0.2-0.4-0.2c-0.6,0-1.2,0-1.9,0c-0.1,0-0.1,0-0.2,0c0-0.4,0-0.8,0-1.1c0.1,0,0.1,0,0.2,0c1,0,2.1,0,3.1,0
	c0.1,0,0.2,0,0.3,0.2c1.5,3.6,2.9,7.1,4.4,10.6c0.2,0.3,0.2,0.5,0.2,0.9c0,2.3,0,4.7,0,7c0,0.2-0.1,0.3-0.3,0.3c-6.5,0-13,0-19.5,0
	C2,22,2,22,2,21.8c0-2.4,0-4.9,0-7.3c0-0.1,0-0.2,0.1-0.3C3,11.8,4,9.6,4.9,7.3C5.5,5.9,6,4.6,6.6,3.2c0-0.1,0.1-0.1,0.2-0.1
	C7.9,3.1,8.9,3.1,10.1,3.1C10,3.1,10.1,3.1,10.1,3.1z"/>
<path class="st1" d="M13.3,10.1c0.8,0,1.5,0,2.4,0c-1.2,1.4-2.4,2.8-3.6,4.1c-1.2-1.4-2.4-2.7-3.6-4.1c0.8,0,1.6,0,2.4,0
	c0-0.1,0-0.2,0-0.3c0-2.6,0-5.2,0-7.8c-0.2-0.2-0.2-0.2,0.1-0.2c0.7,0,1.5,0,2.3,0C13.3,4.6,13.3,7.3,13.3,10.1z"/>
</svg>
